<?xml version="1.0" encoding="utf-8" standalone="no"?>
<!DOCTYPE svg PUBLIC "-//W3C//DTD SVG 1.1//EN"
  "http://www.w3.org/Graphics/SVG/1.1/DTD/svg11.dtd">
<svg xmlns:xlink="http://www.w3.org/1999/xlink" width="432.294375pt" height="253.598572pt" viewBox="0 0 432.294375 253.598572" xmlns="http://www.w3.org/2000/svg" version="1.1">
 <metadata>
  <rdf:RDF xmlns:dc="http://purl.org/dc/elements/1.1/" xmlns:cc="http://creativecommons.org/ns#" xmlns:rdf="http://www.w3.org/1999/02/22-rdf-syntax-ns#">
   <cc:Work>
    <dc:type rdf:resource="http://purl.org/dc/dcmitype/StillImage"/>
    <dc:date>2024-06-13T14:52:41.821995</dc:date>
    <dc:format>image/svg+xml</dc:format>
    <dc:creator>
     <cc:Agent>
      <dc:title>Matplotlib v3.8.4, https://matplotlib.org/</dc:title>
     </cc:Agent>
    </dc:creator>
   </cc:Work>
  </rdf:RDF>
 </metadata>
 <defs>
  <style type="text/css">*{stroke-linejoin: round; stroke-linecap: butt}</style>
 </defs>
 <g id="figure_1">
  <g id="patch_1">
   <path d="M 0 253.598572 
L 432.294375 253.598572 
L 432.294375 0 
L 0 0 
z
" style="fill: #ffffff"/>
  </g>
  <g id="axes_1">
   <g id="patch_2">
    <path d="M 67.974375 208.364197 
L 425.094375 208.364197 
L 425.094375 8.780197 
L 67.974375 8.780197 
z
" style="fill: #ffffff"/>
   </g>
   <g id="matplotlib.axis_1">
    <g id="xtick_1">
     <g id="line2d_1">
      <defs>
       <path id="mea50a44b7b" d="M 0 0 
L 0 -6 
" style="stroke: #000000; stroke-width: 0.8"/>
      </defs>
      <g>
       <use xlink:href="#mea50a44b7b" x="83.940435" y="208.364197" style="stroke: #000000; stroke-width: 0.8"/>
      </g>
     </g>
     <g id="line2d_2">
      <defs>
       <path id="m85c3b34ec4" d="M 0 0 
L 0 6 
" style="stroke: #000000; stroke-width: 0.8"/>
      </defs>
      <g>
       <use xlink:href="#m85c3b34ec4" x="83.940435" y="8.780197" style="stroke: #000000; stroke-width: 0.8"/>
      </g>
     </g>
     <g id="text_1">
      <!-- 0 -->
      <g transform="translate(80.122935 222.482322) scale(0.12 -0.12)">
       <defs>
        <path id="DejaVuSans-30" d="M 2034 4250 
Q 1547 4250 1301 3770 
Q 1056 3291 1056 2328 
Q 1056 1369 1301 889 
Q 1547 409 2034 409 
Q 2525 409 2770 889 
Q 3016 1369 3016 2328 
Q 3016 3291 2770 3770 
Q 2525 4250 2034 4250 
z
M 2034 4750 
Q 2819 4750 3233 4129 
Q 3647 3509 3647 2328 
Q 3647 1150 3233 529 
Q 2819 -91 2034 -91 
Q 1250 -91 836 529 
Q 422 1150 422 2328 
Q 422 3509 836 4129 
Q 1250 4750 2034 4750 
z
" transform="scale(0.015625)"/>
       </defs>
       <use xlink:href="#DejaVuSans-30"/>
      </g>
     </g>
    </g>
    <g id="xtick_2">
     <g id="line2d_3">
      <g>
       <use xlink:href="#mea50a44b7b" x="128.003141" y="208.364197" style="stroke: #000000; stroke-width: 0.8"/>
      </g>
     </g>
     <g id="line2d_4">
      <g>
       <use xlink:href="#m85c3b34ec4" x="128.003141" y="8.780197" style="stroke: #000000; stroke-width: 0.8"/>
      </g>
     </g>
     <g id="text_2">
      <!-- 250 -->
      <g transform="translate(116.550641 222.482322) scale(0.12 -0.12)">
       <defs>
        <path id="DejaVuSans-32" d="M 1228 531 
L 3431 531 
L 3431 0 
L 469 0 
L 469 531 
Q 828 903 1448 1529 
Q 2069 2156 2228 2338 
Q 2531 2678 2651 2914 
Q 2772 3150 2772 3378 
Q 2772 3750 2511 3984 
Q 2250 4219 1831 4219 
Q 1534 4219 1204 4116 
Q 875 4013 500 3803 
L 500 4441 
Q 881 4594 1212 4672 
Q 1544 4750 1819 4750 
Q 2544 4750 2975 4387 
Q 3406 4025 3406 3419 
Q 3406 3131 3298 2873 
Q 3191 2616 2906 2266 
Q 2828 2175 2409 1742 
Q 1991 1309 1228 531 
z
" transform="scale(0.015625)"/>
        <path id="DejaVuSans-35" d="M 691 4666 
L 3169 4666 
L 3169 4134 
L 1269 4134 
L 1269 2991 
Q 1406 3038 1543 3061 
Q 1681 3084 1819 3084 
Q 2600 3084 3056 2656 
Q 3513 2228 3513 1497 
Q 3513 744 3044 326 
Q 2575 -91 1722 -91 
Q 1428 -91 1123 -41 
Q 819 9 494 109 
L 494 744 
Q 775 591 1075 516 
Q 1375 441 1709 441 
Q 2250 441 2565 725 
Q 2881 1009 2881 1497 
Q 2881 1984 2565 2268 
Q 2250 2553 1709 2553 
Q 1456 2553 1204 2497 
Q 953 2441 691 2322 
L 691 4666 
z
" transform="scale(0.015625)"/>
       </defs>
       <use xlink:href="#DejaVuSans-32"/>
       <use xlink:href="#DejaVuSans-35" x="63.623047"/>
       <use xlink:href="#DejaVuSans-30" x="127.246094"/>
      </g>
     </g>
    </g>
    <g id="xtick_3">
     <g id="line2d_5">
      <g>
       <use xlink:href="#mea50a44b7b" x="172.065846" y="208.364197" style="stroke: #000000; stroke-width: 0.8"/>
      </g>
     </g>
     <g id="line2d_6">
      <g>
       <use xlink:href="#m85c3b34ec4" x="172.065846" y="8.780197" style="stroke: #000000; stroke-width: 0.8"/>
      </g>
     </g>
     <g id="text_3">
      <!-- 500 -->
      <g transform="translate(160.613346 222.482322) scale(0.12 -0.12)">
       <use xlink:href="#DejaVuSans-35"/>
       <use xlink:href="#DejaVuSans-30" x="63.623047"/>
       <use xlink:href="#DejaVuSans-30" x="127.246094"/>
      </g>
     </g>
    </g>
    <g id="xtick_4">
     <g id="line2d_7">
      <g>
       <use xlink:href="#mea50a44b7b" x="216.128552" y="208.364197" style="stroke: #000000; stroke-width: 0.8"/>
      </g>
     </g>
     <g id="line2d_8">
      <g>
       <use xlink:href="#m85c3b34ec4" x="216.128552" y="8.780197" style="stroke: #000000; stroke-width: 0.8"/>
      </g>
     </g>
     <g id="text_4">
      <!-- 750 -->
      <g transform="translate(204.676052 222.482322) scale(0.12 -0.12)">
       <defs>
        <path id="DejaVuSans-37" d="M 525 4666 
L 3525 4666 
L 3525 4397 
L 1831 0 
L 1172 0 
L 2766 4134 
L 525 4134 
L 525 4666 
z
" transform="scale(0.015625)"/>
       </defs>
       <use xlink:href="#DejaVuSans-37"/>
       <use xlink:href="#DejaVuSans-35" x="63.623047"/>
       <use xlink:href="#DejaVuSans-30" x="127.246094"/>
      </g>
     </g>
    </g>
    <g id="xtick_5">
     <g id="line2d_9">
      <g>
       <use xlink:href="#mea50a44b7b" x="260.191258" y="208.364197" style="stroke: #000000; stroke-width: 0.8"/>
      </g>
     </g>
     <g id="line2d_10">
      <g>
       <use xlink:href="#m85c3b34ec4" x="260.191258" y="8.780197" style="stroke: #000000; stroke-width: 0.8"/>
      </g>
     </g>
     <g id="text_5">
      <!-- 1000 -->
      <g transform="translate(244.921258 222.482322) scale(0.12 -0.12)">
       <defs>
        <path id="DejaVuSans-31" d="M 794 531 
L 1825 531 
L 1825 4091 
L 703 3866 
L 703 4441 
L 1819 4666 
L 2450 4666 
L 2450 531 
L 3481 531 
L 3481 0 
L 794 0 
L 794 531 
z
" transform="scale(0.015625)"/>
       </defs>
       <use xlink:href="#DejaVuSans-31"/>
       <use xlink:href="#DejaVuSans-30" x="63.623047"/>
       <use xlink:href="#DejaVuSans-30" x="127.246094"/>
       <use xlink:href="#DejaVuSans-30" x="190.869141"/>
      </g>
     </g>
    </g>
    <g id="xtick_6">
     <g id="line2d_11">
      <g>
       <use xlink:href="#mea50a44b7b" x="304.253964" y="208.364197" style="stroke: #000000; stroke-width: 0.8"/>
      </g>
     </g>
     <g id="line2d_12">
      <g>
       <use xlink:href="#m85c3b34ec4" x="304.253964" y="8.780197" style="stroke: #000000; stroke-width: 0.8"/>
      </g>
     </g>
     <g id="text_6">
      <!-- 1250 -->
      <g transform="translate(288.983964 222.482322) scale(0.12 -0.12)">
       <use xlink:href="#DejaVuSans-31"/>
       <use xlink:href="#DejaVuSans-32" x="63.623047"/>
       <use xlink:href="#DejaVuSans-35" x="127.246094"/>
       <use xlink:href="#DejaVuSans-30" x="190.869141"/>
      </g>
     </g>
    </g>
    <g id="xtick_7">
     <g id="line2d_13">
      <g>
       <use xlink:href="#mea50a44b7b" x="348.31667" y="208.364197" style="stroke: #000000; stroke-width: 0.8"/>
      </g>
     </g>
     <g id="line2d_14">
      <g>
       <use xlink:href="#m85c3b34ec4" x="348.31667" y="8.780197" style="stroke: #000000; stroke-width: 0.8"/>
      </g>
     </g>
     <g id="text_7">
      <!-- 1500 -->
      <g transform="translate(333.04667 222.482322) scale(0.12 -0.12)">
       <use xlink:href="#DejaVuSans-31"/>
       <use xlink:href="#DejaVuSans-35" x="63.623047"/>
       <use xlink:href="#DejaVuSans-30" x="127.246094"/>
       <use xlink:href="#DejaVuSans-30" x="190.869141"/>
      </g>
     </g>
    </g>
    <g id="xtick_8">
     <g id="line2d_15">
      <g>
       <use xlink:href="#mea50a44b7b" x="392.379376" y="208.364197" style="stroke: #000000; stroke-width: 0.8"/>
      </g>
     </g>
     <g id="line2d_16">
      <g>
       <use xlink:href="#m85c3b34ec4" x="392.379376" y="8.780197" style="stroke: #000000; stroke-width: 0.8"/>
      </g>
     </g>
     <g id="text_8">
      <!-- 1750 -->
      <g transform="translate(377.109376 222.482322) scale(0.12 -0.12)">
       <use xlink:href="#DejaVuSans-31"/>
       <use xlink:href="#DejaVuSans-37" x="63.623047"/>
       <use xlink:href="#DejaVuSans-35" x="127.246094"/>
       <use xlink:href="#DejaVuSans-30" x="190.869141"/>
      </g>
     </g>
    </g>
    <g id="xtick_9">
     <g id="line2d_17">
      <defs>
       <path id="mc17bbea42e" d="M 0 0 
L 0 -3.5 
" style="stroke: #000000; stroke-width: 0.6"/>
      </defs>
      <g>
       <use xlink:href="#mc17bbea42e" x="75.127894" y="208.364197" style="stroke: #000000; stroke-width: 0.6"/>
      </g>
     </g>
     <g id="line2d_18">
      <defs>
       <path id="m26decbd112" d="M 0 0 
L 0 3.5 
" style="stroke: #000000; stroke-width: 0.6"/>
      </defs>
      <g>
       <use xlink:href="#m26decbd112" x="75.127894" y="8.780197" style="stroke: #000000; stroke-width: 0.6"/>
      </g>
     </g>
    </g>
    <g id="xtick_10">
     <g id="line2d_19">
      <g>
       <use xlink:href="#mc17bbea42e" x="92.752976" y="208.364197" style="stroke: #000000; stroke-width: 0.6"/>
      </g>
     </g>
     <g id="line2d_20">
      <g>
       <use xlink:href="#m26decbd112" x="92.752976" y="8.780197" style="stroke: #000000; stroke-width: 0.6"/>
      </g>
     </g>
    </g>
    <g id="xtick_11">
     <g id="line2d_21">
      <g>
       <use xlink:href="#mc17bbea42e" x="101.565517" y="208.364197" style="stroke: #000000; stroke-width: 0.6"/>
      </g>
     </g>
     <g id="line2d_22">
      <g>
       <use xlink:href="#m26decbd112" x="101.565517" y="8.780197" style="stroke: #000000; stroke-width: 0.6"/>
      </g>
     </g>
    </g>
    <g id="xtick_12">
     <g id="line2d_23">
      <g>
       <use xlink:href="#mc17bbea42e" x="110.378058" y="208.364197" style="stroke: #000000; stroke-width: 0.6"/>
      </g>
     </g>
     <g id="line2d_24">
      <g>
       <use xlink:href="#m26decbd112" x="110.378058" y="8.780197" style="stroke: #000000; stroke-width: 0.6"/>
      </g>
     </g>
    </g>
    <g id="xtick_13">
     <g id="line2d_25">
      <g>
       <use xlink:href="#mc17bbea42e" x="119.190599" y="208.364197" style="stroke: #000000; stroke-width: 0.6"/>
      </g>
     </g>
     <g id="line2d_26">
      <g>
       <use xlink:href="#m26decbd112" x="119.190599" y="8.780197" style="stroke: #000000; stroke-width: 0.6"/>
      </g>
     </g>
    </g>
    <g id="xtick_14">
     <g id="line2d_27">
      <g>
       <use xlink:href="#mc17bbea42e" x="136.815682" y="208.364197" style="stroke: #000000; stroke-width: 0.6"/>
      </g>
     </g>
     <g id="line2d_28">
      <g>
       <use xlink:href="#m26decbd112" x="136.815682" y="8.780197" style="stroke: #000000; stroke-width: 0.6"/>
      </g>
     </g>
    </g>
    <g id="xtick_15">
     <g id="line2d_29">
      <g>
       <use xlink:href="#mc17bbea42e" x="145.628223" y="208.364197" style="stroke: #000000; stroke-width: 0.6"/>
      </g>
     </g>
     <g id="line2d_30">
      <g>
       <use xlink:href="#m26decbd112" x="145.628223" y="8.780197" style="stroke: #000000; stroke-width: 0.6"/>
      </g>
     </g>
    </g>
    <g id="xtick_16">
     <g id="line2d_31">
      <g>
       <use xlink:href="#mc17bbea42e" x="154.440764" y="208.364197" style="stroke: #000000; stroke-width: 0.6"/>
      </g>
     </g>
     <g id="line2d_32">
      <g>
       <use xlink:href="#m26decbd112" x="154.440764" y="8.780197" style="stroke: #000000; stroke-width: 0.6"/>
      </g>
     </g>
    </g>
    <g id="xtick_17">
     <g id="line2d_33">
      <g>
       <use xlink:href="#mc17bbea42e" x="163.253305" y="208.364197" style="stroke: #000000; stroke-width: 0.6"/>
      </g>
     </g>
     <g id="line2d_34">
      <g>
       <use xlink:href="#m26decbd112" x="163.253305" y="8.780197" style="stroke: #000000; stroke-width: 0.6"/>
      </g>
     </g>
    </g>
    <g id="xtick_18">
     <g id="line2d_35">
      <g>
       <use xlink:href="#mc17bbea42e" x="180.878388" y="208.364197" style="stroke: #000000; stroke-width: 0.6"/>
      </g>
     </g>
     <g id="line2d_36">
      <g>
       <use xlink:href="#m26decbd112" x="180.878388" y="8.780197" style="stroke: #000000; stroke-width: 0.6"/>
      </g>
     </g>
    </g>
    <g id="xtick_19">
     <g id="line2d_37">
      <g>
       <use xlink:href="#mc17bbea42e" x="189.690929" y="208.364197" style="stroke: #000000; stroke-width: 0.6"/>
      </g>
     </g>
     <g id="line2d_38">
      <g>
       <use xlink:href="#m26decbd112" x="189.690929" y="8.780197" style="stroke: #000000; stroke-width: 0.6"/>
      </g>
     </g>
    </g>
    <g id="xtick_20">
     <g id="line2d_39">
      <g>
       <use xlink:href="#mc17bbea42e" x="198.50347" y="208.364197" style="stroke: #000000; stroke-width: 0.6"/>
      </g>
     </g>
     <g id="line2d_40">
      <g>
       <use xlink:href="#m26decbd112" x="198.50347" y="8.780197" style="stroke: #000000; stroke-width: 0.6"/>
      </g>
     </g>
    </g>
    <g id="xtick_21">
     <g id="line2d_41">
      <g>
       <use xlink:href="#mc17bbea42e" x="207.316011" y="208.364197" style="stroke: #000000; stroke-width: 0.6"/>
      </g>
     </g>
     <g id="line2d_42">
      <g>
       <use xlink:href="#m26decbd112" x="207.316011" y="8.780197" style="stroke: #000000; stroke-width: 0.6"/>
      </g>
     </g>
    </g>
    <g id="xtick_22">
     <g id="line2d_43">
      <g>
       <use xlink:href="#mc17bbea42e" x="224.941093" y="208.364197" style="stroke: #000000; stroke-width: 0.6"/>
      </g>
     </g>
     <g id="line2d_44">
      <g>
       <use xlink:href="#m26decbd112" x="224.941093" y="8.780197" style="stroke: #000000; stroke-width: 0.6"/>
      </g>
     </g>
    </g>
    <g id="xtick_23">
     <g id="line2d_45">
      <g>
       <use xlink:href="#mc17bbea42e" x="233.753635" y="208.364197" style="stroke: #000000; stroke-width: 0.6"/>
      </g>
     </g>
     <g id="line2d_46">
      <g>
       <use xlink:href="#m26decbd112" x="233.753635" y="8.780197" style="stroke: #000000; stroke-width: 0.6"/>
      </g>
     </g>
    </g>
    <g id="xtick_24">
     <g id="line2d_47">
      <g>
       <use xlink:href="#mc17bbea42e" x="242.566176" y="208.364197" style="stroke: #000000; stroke-width: 0.6"/>
      </g>
     </g>
     <g id="line2d_48">
      <g>
       <use xlink:href="#m26decbd112" x="242.566176" y="8.780197" style="stroke: #000000; stroke-width: 0.6"/>
      </g>
     </g>
    </g>
    <g id="xtick_25">
     <g id="line2d_49">
      <g>
       <use xlink:href="#mc17bbea42e" x="251.378717" y="208.364197" style="stroke: #000000; stroke-width: 0.6"/>
      </g>
     </g>
     <g id="line2d_50">
      <g>
       <use xlink:href="#m26decbd112" x="251.378717" y="8.780197" style="stroke: #000000; stroke-width: 0.6"/>
      </g>
     </g>
    </g>
    <g id="xtick_26">
     <g id="line2d_51">
      <g>
       <use xlink:href="#mc17bbea42e" x="269.003799" y="208.364197" style="stroke: #000000; stroke-width: 0.6"/>
      </g>
     </g>
     <g id="line2d_52">
      <g>
       <use xlink:href="#m26decbd112" x="269.003799" y="8.780197" style="stroke: #000000; stroke-width: 0.6"/>
      </g>
     </g>
    </g>
    <g id="xtick_27">
     <g id="line2d_53">
      <g>
       <use xlink:href="#mc17bbea42e" x="277.816341" y="208.364197" style="stroke: #000000; stroke-width: 0.6"/>
      </g>
     </g>
     <g id="line2d_54">
      <g>
       <use xlink:href="#m26decbd112" x="277.816341" y="8.780197" style="stroke: #000000; stroke-width: 0.6"/>
      </g>
     </g>
    </g>
    <g id="xtick_28">
     <g id="line2d_55">
      <g>
       <use xlink:href="#mc17bbea42e" x="286.628882" y="208.364197" style="stroke: #000000; stroke-width: 0.6"/>
      </g>
     </g>
     <g id="line2d_56">
      <g>
       <use xlink:href="#m26decbd112" x="286.628882" y="8.780197" style="stroke: #000000; stroke-width: 0.6"/>
      </g>
     </g>
    </g>
    <g id="xtick_29">
     <g id="line2d_57">
      <g>
       <use xlink:href="#mc17bbea42e" x="295.441423" y="208.364197" style="stroke: #000000; stroke-width: 0.6"/>
      </g>
     </g>
     <g id="line2d_58">
      <g>
       <use xlink:href="#m26decbd112" x="295.441423" y="8.780197" style="stroke: #000000; stroke-width: 0.6"/>
      </g>
     </g>
    </g>
    <g id="xtick_30">
     <g id="line2d_59">
      <g>
       <use xlink:href="#mc17bbea42e" x="313.066505" y="208.364197" style="stroke: #000000; stroke-width: 0.6"/>
      </g>
     </g>
     <g id="line2d_60">
      <g>
       <use xlink:href="#m26decbd112" x="313.066505" y="8.780197" style="stroke: #000000; stroke-width: 0.6"/>
      </g>
     </g>
    </g>
    <g id="xtick_31">
     <g id="line2d_61">
      <g>
       <use xlink:href="#mc17bbea42e" x="321.879046" y="208.364197" style="stroke: #000000; stroke-width: 0.6"/>
      </g>
     </g>
     <g id="line2d_62">
      <g>
       <use xlink:href="#m26decbd112" x="321.879046" y="8.780197" style="stroke: #000000; stroke-width: 0.6"/>
      </g>
     </g>
    </g>
    <g id="xtick_32">
     <g id="line2d_63">
      <g>
       <use xlink:href="#mc17bbea42e" x="330.691588" y="208.364197" style="stroke: #000000; stroke-width: 0.6"/>
      </g>
     </g>
     <g id="line2d_64">
      <g>
       <use xlink:href="#m26decbd112" x="330.691588" y="8.780197" style="stroke: #000000; stroke-width: 0.6"/>
      </g>
     </g>
    </g>
    <g id="xtick_33">
     <g id="line2d_65">
      <g>
       <use xlink:href="#mc17bbea42e" x="339.504129" y="208.364197" style="stroke: #000000; stroke-width: 0.6"/>
      </g>
     </g>
     <g id="line2d_66">
      <g>
       <use xlink:href="#m26decbd112" x="339.504129" y="8.780197" style="stroke: #000000; stroke-width: 0.6"/>
      </g>
     </g>
    </g>
    <g id="xtick_34">
     <g id="line2d_67">
      <g>
       <use xlink:href="#mc17bbea42e" x="357.129211" y="208.364197" style="stroke: #000000; stroke-width: 0.6"/>
      </g>
     </g>
     <g id="line2d_68">
      <g>
       <use xlink:href="#m26decbd112" x="357.129211" y="8.780197" style="stroke: #000000; stroke-width: 0.6"/>
      </g>
     </g>
    </g>
    <g id="xtick_35">
     <g id="line2d_69">
      <g>
       <use xlink:href="#mc17bbea42e" x="365.941752" y="208.364197" style="stroke: #000000; stroke-width: 0.6"/>
      </g>
     </g>
     <g id="line2d_70">
      <g>
       <use xlink:href="#m26decbd112" x="365.941752" y="8.780197" style="stroke: #000000; stroke-width: 0.6"/>
      </g>
     </g>
    </g>
    <g id="xtick_36">
     <g id="line2d_71">
      <g>
       <use xlink:href="#mc17bbea42e" x="374.754293" y="208.364197" style="stroke: #000000; stroke-width: 0.6"/>
      </g>
     </g>
     <g id="line2d_72">
      <g>
       <use xlink:href="#m26decbd112" x="374.754293" y="8.780197" style="stroke: #000000; stroke-width: 0.6"/>
      </g>
     </g>
    </g>
    <g id="xtick_37">
     <g id="line2d_73">
      <g>
       <use xlink:href="#mc17bbea42e" x="383.566835" y="208.364197" style="stroke: #000000; stroke-width: 0.6"/>
      </g>
     </g>
     <g id="line2d_74">
      <g>
       <use xlink:href="#m26decbd112" x="383.566835" y="8.780197" style="stroke: #000000; stroke-width: 0.6"/>
      </g>
     </g>
    </g>
    <g id="xtick_38">
     <g id="line2d_75">
      <g>
       <use xlink:href="#mc17bbea42e" x="401.191917" y="208.364197" style="stroke: #000000; stroke-width: 0.6"/>
      </g>
     </g>
     <g id="line2d_76">
      <g>
       <use xlink:href="#m26decbd112" x="401.191917" y="8.780197" style="stroke: #000000; stroke-width: 0.6"/>
      </g>
     </g>
    </g>
    <g id="xtick_39">
     <g id="line2d_77">
      <g>
       <use xlink:href="#mc17bbea42e" x="410.004458" y="208.364197" style="stroke: #000000; stroke-width: 0.6"/>
      </g>
     </g>
     <g id="line2d_78">
      <g>
       <use xlink:href="#m26decbd112" x="410.004458" y="8.780197" style="stroke: #000000; stroke-width: 0.6"/>
      </g>
     </g>
    </g>
    <g id="xtick_40">
     <g id="line2d_79">
      <g>
       <use xlink:href="#mc17bbea42e" x="418.816999" y="208.364197" style="stroke: #000000; stroke-width: 0.6"/>
      </g>
     </g>
     <g id="line2d_80">
      <g>
       <use xlink:href="#m26decbd112" x="418.816999" y="8.780197" style="stroke: #000000; stroke-width: 0.6"/>
      </g>
     </g>
    </g>
    <g id="text_9">
     <!-- Time (seconds) -->
     <g transform="translate(177.843281 242.655134) scale(0.18 -0.18)">
      <defs>
       <path id="DejaVuSans-54" d="M -19 4666 
L 3928 4666 
L 3928 4134 
L 2272 4134 
L 2272 0 
L 1638 0 
L 1638 4134 
L -19 4134 
L -19 4666 
z
" transform="scale(0.015625)"/>
       <path id="DejaVuSans-69" d="M 603 3500 
L 1178 3500 
L 1178 0 
L 603 0 
L 603 3500 
z
M 603 4863 
L 1178 4863 
L 1178 4134 
L 603 4134 
L 603 4863 
z
" transform="scale(0.015625)"/>
       <path id="DejaVuSans-6d" d="M 3328 2828 
Q 3544 3216 3844 3400 
Q 4144 3584 4550 3584 
Q 5097 3584 5394 3201 
Q 5691 2819 5691 2113 
L 5691 0 
L 5113 0 
L 5113 2094 
Q 5113 2597 4934 2840 
Q 4756 3084 4391 3084 
Q 3944 3084 3684 2787 
Q 3425 2491 3425 1978 
L 3425 0 
L 2847 0 
L 2847 2094 
Q 2847 2600 2669 2842 
Q 2491 3084 2119 3084 
Q 1678 3084 1418 2786 
Q 1159 2488 1159 1978 
L 1159 0 
L 581 0 
L 581 3500 
L 1159 3500 
L 1159 2956 
Q 1356 3278 1631 3431 
Q 1906 3584 2284 3584 
Q 2666 3584 2933 3390 
Q 3200 3197 3328 2828 
z
" transform="scale(0.015625)"/>
       <path id="DejaVuSans-65" d="M 3597 1894 
L 3597 1613 
L 953 1613 
Q 991 1019 1311 708 
Q 1631 397 2203 397 
Q 2534 397 2845 478 
Q 3156 559 3463 722 
L 3463 178 
Q 3153 47 2828 -22 
Q 2503 -91 2169 -91 
Q 1331 -91 842 396 
Q 353 884 353 1716 
Q 353 2575 817 3079 
Q 1281 3584 2069 3584 
Q 2775 3584 3186 3129 
Q 3597 2675 3597 1894 
z
M 3022 2063 
Q 3016 2534 2758 2815 
Q 2500 3097 2075 3097 
Q 1594 3097 1305 2825 
Q 1016 2553 972 2059 
L 3022 2063 
z
" transform="scale(0.015625)"/>
       <path id="DejaVuSans-20" transform="scale(0.015625)"/>
       <path id="DejaVuSans-28" d="M 1984 4856 
Q 1566 4138 1362 3434 
Q 1159 2731 1159 2009 
Q 1159 1288 1364 580 
Q 1569 -128 1984 -844 
L 1484 -844 
Q 1016 -109 783 600 
Q 550 1309 550 2009 
Q 550 2706 781 3412 
Q 1013 4119 1484 4856 
L 1984 4856 
z
" transform="scale(0.015625)"/>
       <path id="DejaVuSans-73" d="M 2834 3397 
L 2834 2853 
Q 2591 2978 2328 3040 
Q 2066 3103 1784 3103 
Q 1356 3103 1142 2972 
Q 928 2841 928 2578 
Q 928 2378 1081 2264 
Q 1234 2150 1697 2047 
L 1894 2003 
Q 2506 1872 2764 1633 
Q 3022 1394 3022 966 
Q 3022 478 2636 193 
Q 2250 -91 1575 -91 
Q 1294 -91 989 -36 
Q 684 19 347 128 
L 347 722 
Q 666 556 975 473 
Q 1284 391 1588 391 
Q 1994 391 2212 530 
Q 2431 669 2431 922 
Q 2431 1156 2273 1281 
Q 2116 1406 1581 1522 
L 1381 1569 
Q 847 1681 609 1914 
Q 372 2147 372 2553 
Q 372 3047 722 3315 
Q 1072 3584 1716 3584 
Q 2034 3584 2315 3537 
Q 2597 3491 2834 3397 
z
" transform="scale(0.015625)"/>
       <path id="DejaVuSans-63" d="M 3122 3366 
L 3122 2828 
Q 2878 2963 2633 3030 
Q 2388 3097 2138 3097 
Q 1578 3097 1268 2742 
Q 959 2388 959 1747 
Q 959 1106 1268 751 
Q 1578 397 2138 397 
Q 2388 397 2633 464 
Q 2878 531 3122 666 
L 3122 134 
Q 2881 22 2623 -34 
Q 2366 -91 2075 -91 
Q 1284 -91 818 406 
Q 353 903 353 1747 
Q 353 2603 823 3093 
Q 1294 3584 2113 3584 
Q 2378 3584 2631 3529 
Q 2884 3475 3122 3366 
z
" transform="scale(0.015625)"/>
       <path id="DejaVuSans-6f" d="M 1959 3097 
Q 1497 3097 1228 2736 
Q 959 2375 959 1747 
Q 959 1119 1226 758 
Q 1494 397 1959 397 
Q 2419 397 2687 759 
Q 2956 1122 2956 1747 
Q 2956 2369 2687 2733 
Q 2419 3097 1959 3097 
z
M 1959 3584 
Q 2709 3584 3137 3096 
Q 3566 2609 3566 1747 
Q 3566 888 3137 398 
Q 2709 -91 1959 -91 
Q 1206 -91 779 398 
Q 353 888 353 1747 
Q 353 2609 779 3096 
Q 1206 3584 1959 3584 
z
" transform="scale(0.015625)"/>
       <path id="DejaVuSans-6e" d="M 3513 2113 
L 3513 0 
L 2938 0 
L 2938 2094 
Q 2938 2591 2744 2837 
Q 2550 3084 2163 3084 
Q 1697 3084 1428 2787 
Q 1159 2491 1159 1978 
L 1159 0 
L 581 0 
L 581 3500 
L 1159 3500 
L 1159 2956 
Q 1366 3272 1645 3428 
Q 1925 3584 2291 3584 
Q 2894 3584 3203 3211 
Q 3513 2838 3513 2113 
z
" transform="scale(0.015625)"/>
       <path id="DejaVuSans-64" d="M 2906 2969 
L 2906 4863 
L 3481 4863 
L 3481 0 
L 2906 0 
L 2906 525 
Q 2725 213 2448 61 
Q 2172 -91 1784 -91 
Q 1150 -91 751 415 
Q 353 922 353 1747 
Q 353 2572 751 3078 
Q 1150 3584 1784 3584 
Q 2172 3584 2448 3432 
Q 2725 3281 2906 2969 
z
M 947 1747 
Q 947 1113 1208 752 
Q 1469 391 1925 391 
Q 2381 391 2643 752 
Q 2906 1113 2906 1747 
Q 2906 2381 2643 2742 
Q 2381 3103 1925 3103 
Q 1469 3103 1208 2742 
Q 947 2381 947 1747 
z
" transform="scale(0.015625)"/>
       <path id="DejaVuSans-29" d="M 513 4856 
L 1013 4856 
Q 1481 4119 1714 3412 
Q 1947 2706 1947 2009 
Q 1947 1309 1714 600 
Q 1481 -109 1013 -844 
L 513 -844 
Q 928 -128 1133 580 
Q 1338 1288 1338 2009 
Q 1338 2731 1133 3434 
Q 928 4138 513 4856 
z
" transform="scale(0.015625)"/>
      </defs>
      <use xlink:href="#DejaVuSans-54"/>
      <use xlink:href="#DejaVuSans-69" x="57.958984"/>
      <use xlink:href="#DejaVuSans-6d" x="85.742188"/>
      <use xlink:href="#DejaVuSans-65" x="183.154297"/>
      <use xlink:href="#DejaVuSans-20" x="244.677734"/>
      <use xlink:href="#DejaVuSans-28" x="276.464844"/>
      <use xlink:href="#DejaVuSans-73" x="315.478516"/>
      <use xlink:href="#DejaVuSans-65" x="367.578125"/>
      <use xlink:href="#DejaVuSans-63" x="429.101562"/>
      <use xlink:href="#DejaVuSans-6f" x="484.082031"/>
      <use xlink:href="#DejaVuSans-6e" x="545.263672"/>
      <use xlink:href="#DejaVuSans-64" x="608.642578"/>
      <use xlink:href="#DejaVuSans-73" x="672.119141"/>
      <use xlink:href="#DejaVuSans-29" x="724.21875"/>
     </g>
    </g>
   </g>
   <g id="matplotlib.axis_2">
    <g id="ytick_1">
     <g id="line2d_81">
      <defs>
       <path id="mdf26d7424e" d="M 0 0 
L 6 0 
" style="stroke: #000000; stroke-width: 0.8"/>
      </defs>
      <g>
       <use xlink:href="#mdf26d7424e" x="67.974375" y="181.012794" style="stroke: #000000; stroke-width: 0.8"/>
      </g>
     </g>
     <g id="line2d_82">
      <defs>
       <path id="m6dce57ff67" d="M 0 0 
L -6 0 
" style="stroke: #000000; stroke-width: 0.8"/>
      </defs>
      <g>
       <use xlink:href="#m6dce57ff67" x="425.094375" y="181.012794" style="stroke: #000000; stroke-width: 0.8"/>
      </g>
     </g>
     <g id="text_10">
      <!-- 0.165 -->
      <g transform="translate(28.620625 185.571856) scale(0.12 -0.12)">
       <defs>
        <path id="DejaVuSans-2e" d="M 684 794 
L 1344 794 
L 1344 0 
L 684 0 
L 684 794 
z
" transform="scale(0.015625)"/>
        <path id="DejaVuSans-36" d="M 2113 2584 
Q 1688 2584 1439 2293 
Q 1191 2003 1191 1497 
Q 1191 994 1439 701 
Q 1688 409 2113 409 
Q 2538 409 2786 701 
Q 3034 994 3034 1497 
Q 3034 2003 2786 2293 
Q 2538 2584 2113 2584 
z
M 3366 4563 
L 3366 3988 
Q 3128 4100 2886 4159 
Q 2644 4219 2406 4219 
Q 1781 4219 1451 3797 
Q 1122 3375 1075 2522 
Q 1259 2794 1537 2939 
Q 1816 3084 2150 3084 
Q 2853 3084 3261 2657 
Q 3669 2231 3669 1497 
Q 3669 778 3244 343 
Q 2819 -91 2113 -91 
Q 1303 -91 875 529 
Q 447 1150 447 2328 
Q 447 3434 972 4092 
Q 1497 4750 2381 4750 
Q 2619 4750 2861 4703 
Q 3103 4656 3366 4563 
z
" transform="scale(0.015625)"/>
       </defs>
       <use xlink:href="#DejaVuSans-30"/>
       <use xlink:href="#DejaVuSans-2e" x="63.623047"/>
       <use xlink:href="#DejaVuSans-31" x="95.410156"/>
       <use xlink:href="#DejaVuSans-36" x="159.033203"/>
       <use xlink:href="#DejaVuSans-35" x="222.65625"/>
      </g>
     </g>
    </g>
    <g id="ytick_2">
     <g id="line2d_83">
      <g>
       <use xlink:href="#mdf26d7424e" x="67.974375" y="147.162048" style="stroke: #000000; stroke-width: 0.8"/>
      </g>
     </g>
     <g id="line2d_84">
      <g>
       <use xlink:href="#m6dce57ff67" x="425.094375" y="147.162048" style="stroke: #000000; stroke-width: 0.8"/>
      </g>
     </g>
     <g id="text_11">
      <!-- 0.170 -->
      <g transform="translate(28.620625 151.72111) scale(0.12 -0.12)">
       <use xlink:href="#DejaVuSans-30"/>
       <use xlink:href="#DejaVuSans-2e" x="63.623047"/>
       <use xlink:href="#DejaVuSans-31" x="95.410156"/>
       <use xlink:href="#DejaVuSans-37" x="159.033203"/>
       <use xlink:href="#DejaVuSans-30" x="222.65625"/>
      </g>
     </g>
    </g>
    <g id="ytick_3">
     <g id="line2d_85">
      <g>
       <use xlink:href="#mdf26d7424e" x="67.974375" y="113.311301" style="stroke: #000000; stroke-width: 0.8"/>
      </g>
     </g>
     <g id="line2d_86">
      <g>
       <use xlink:href="#m6dce57ff67" x="425.094375" y="113.311301" style="stroke: #000000; stroke-width: 0.8"/>
      </g>
     </g>
     <g id="text_12">
      <!-- 0.175 -->
      <g transform="translate(28.620625 117.870364) scale(0.12 -0.12)">
       <use xlink:href="#DejaVuSans-30"/>
       <use xlink:href="#DejaVuSans-2e" x="63.623047"/>
       <use xlink:href="#DejaVuSans-31" x="95.410156"/>
       <use xlink:href="#DejaVuSans-37" x="159.033203"/>
       <use xlink:href="#DejaVuSans-35" x="222.65625"/>
      </g>
     </g>
    </g>
    <g id="ytick_4">
     <g id="line2d_87">
      <g>
       <use xlink:href="#mdf26d7424e" x="67.974375" y="79.460555" style="stroke: #000000; stroke-width: 0.8"/>
      </g>
     </g>
     <g id="line2d_88">
      <g>
       <use xlink:href="#m6dce57ff67" x="425.094375" y="79.460555" style="stroke: #000000; stroke-width: 0.8"/>
      </g>
     </g>
     <g id="text_13">
      <!-- 0.180 -->
      <g transform="translate(28.620625 84.019618) scale(0.12 -0.12)">
       <defs>
        <path id="DejaVuSans-38" d="M 2034 2216 
Q 1584 2216 1326 1975 
Q 1069 1734 1069 1313 
Q 1069 891 1326 650 
Q 1584 409 2034 409 
Q 2484 409 2743 651 
Q 3003 894 3003 1313 
Q 3003 1734 2745 1975 
Q 2488 2216 2034 2216 
z
M 1403 2484 
Q 997 2584 770 2862 
Q 544 3141 544 3541 
Q 544 4100 942 4425 
Q 1341 4750 2034 4750 
Q 2731 4750 3128 4425 
Q 3525 4100 3525 3541 
Q 3525 3141 3298 2862 
Q 3072 2584 2669 2484 
Q 3125 2378 3379 2068 
Q 3634 1759 3634 1313 
Q 3634 634 3220 271 
Q 2806 -91 2034 -91 
Q 1263 -91 848 271 
Q 434 634 434 1313 
Q 434 1759 690 2068 
Q 947 2378 1403 2484 
z
M 1172 3481 
Q 1172 3119 1398 2916 
Q 1625 2713 2034 2713 
Q 2441 2713 2670 2916 
Q 2900 3119 2900 3481 
Q 2900 3844 2670 4047 
Q 2441 4250 2034 4250 
Q 1625 4250 1398 4047 
Q 1172 3844 1172 3481 
z
" transform="scale(0.015625)"/>
       </defs>
       <use xlink:href="#DejaVuSans-30"/>
       <use xlink:href="#DejaVuSans-2e" x="63.623047"/>
       <use xlink:href="#DejaVuSans-31" x="95.410156"/>
       <use xlink:href="#DejaVuSans-38" x="159.033203"/>
       <use xlink:href="#DejaVuSans-30" x="222.65625"/>
      </g>
     </g>
    </g>
    <g id="ytick_5">
     <g id="line2d_89">
      <g>
       <use xlink:href="#mdf26d7424e" x="67.974375" y="45.609809" style="stroke: #000000; stroke-width: 0.8"/>
      </g>
     </g>
     <g id="line2d_90">
      <g>
       <use xlink:href="#m6dce57ff67" x="425.094375" y="45.609809" style="stroke: #000000; stroke-width: 0.8"/>
      </g>
     </g>
     <g id="text_14">
      <!-- 0.185 -->
      <g transform="translate(28.620625 50.168871) scale(0.12 -0.12)">
       <use xlink:href="#DejaVuSans-30"/>
       <use xlink:href="#DejaVuSans-2e" x="63.623047"/>
       <use xlink:href="#DejaVuSans-31" x="95.410156"/>
       <use xlink:href="#DejaVuSans-38" x="159.033203"/>
       <use xlink:href="#DejaVuSans-35" x="222.65625"/>
      </g>
     </g>
    </g>
    <g id="ytick_6">
     <g id="line2d_91">
      <g>
       <use xlink:href="#mdf26d7424e" x="67.974375" y="11.759063" style="stroke: #000000; stroke-width: 0.8"/>
      </g>
     </g>
     <g id="line2d_92">
      <g>
       <use xlink:href="#m6dce57ff67" x="425.094375" y="11.759063" style="stroke: #000000; stroke-width: 0.8"/>
      </g>
     </g>
     <g id="text_15">
      <!-- 0.190 -->
      <g transform="translate(28.620625 16.318125) scale(0.12 -0.12)">
       <defs>
        <path id="DejaVuSans-39" d="M 703 97 
L 703 672 
Q 941 559 1184 500 
Q 1428 441 1663 441 
Q 2288 441 2617 861 
Q 2947 1281 2994 2138 
Q 2813 1869 2534 1725 
Q 2256 1581 1919 1581 
Q 1219 1581 811 2004 
Q 403 2428 403 3163 
Q 403 3881 828 4315 
Q 1253 4750 1959 4750 
Q 2769 4750 3195 4129 
Q 3622 3509 3622 2328 
Q 3622 1225 3098 567 
Q 2575 -91 1691 -91 
Q 1453 -91 1209 -44 
Q 966 3 703 97 
z
M 1959 2075 
Q 2384 2075 2632 2365 
Q 2881 2656 2881 3163 
Q 2881 3666 2632 3958 
Q 2384 4250 1959 4250 
Q 1534 4250 1286 3958 
Q 1038 3666 1038 3163 
Q 1038 2656 1286 2365 
Q 1534 2075 1959 2075 
z
" transform="scale(0.015625)"/>
       </defs>
       <use xlink:href="#DejaVuSans-30"/>
       <use xlink:href="#DejaVuSans-2e" x="63.623047"/>
       <use xlink:href="#DejaVuSans-31" x="95.410156"/>
       <use xlink:href="#DejaVuSans-39" x="159.033203"/>
       <use xlink:href="#DejaVuSans-30" x="222.65625"/>
      </g>
     </g>
    </g>
    <g id="ytick_7">
     <g id="line2d_93">
      <defs>
       <path id="me66416fa92" d="M 0 0 
L 3.5 0 
" style="stroke: #000000; stroke-width: 0.6"/>
      </defs>
      <g>
       <use xlink:href="#me66416fa92" x="67.974375" y="208.093391" style="stroke: #000000; stroke-width: 0.6"/>
      </g>
     </g>
     <g id="line2d_94">
      <defs>
       <path id="m957ad6cfc6" d="M 0 0 
L -3.5 0 
" style="stroke: #000000; stroke-width: 0.6"/>
      </defs>
      <g>
       <use xlink:href="#m957ad6cfc6" x="425.094375" y="208.093391" style="stroke: #000000; stroke-width: 0.6"/>
      </g>
     </g>
    </g>
    <g id="ytick_8">
     <g id="line2d_95">
      <g>
       <use xlink:href="#me66416fa92" x="67.974375" y="201.323242" style="stroke: #000000; stroke-width: 0.6"/>
      </g>
     </g>
     <g id="line2d_96">
      <g>
       <use xlink:href="#m957ad6cfc6" x="425.094375" y="201.323242" style="stroke: #000000; stroke-width: 0.6"/>
      </g>
     </g>
    </g>
    <g id="ytick_9">
     <g id="line2d_97">
      <g>
       <use xlink:href="#me66416fa92" x="67.974375" y="194.553092" style="stroke: #000000; stroke-width: 0.6"/>
      </g>
     </g>
     <g id="line2d_98">
      <g>
       <use xlink:href="#m957ad6cfc6" x="425.094375" y="194.553092" style="stroke: #000000; stroke-width: 0.6"/>
      </g>
     </g>
    </g>
    <g id="ytick_10">
     <g id="line2d_99">
      <g>
       <use xlink:href="#me66416fa92" x="67.974375" y="187.782943" style="stroke: #000000; stroke-width: 0.6"/>
      </g>
     </g>
     <g id="line2d_100">
      <g>
       <use xlink:href="#m957ad6cfc6" x="425.094375" y="187.782943" style="stroke: #000000; stroke-width: 0.6"/>
      </g>
     </g>
    </g>
    <g id="ytick_11">
     <g id="line2d_101">
      <g>
       <use xlink:href="#me66416fa92" x="67.974375" y="174.242645" style="stroke: #000000; stroke-width: 0.6"/>
      </g>
     </g>
     <g id="line2d_102">
      <g>
       <use xlink:href="#m957ad6cfc6" x="425.094375" y="174.242645" style="stroke: #000000; stroke-width: 0.6"/>
      </g>
     </g>
    </g>
    <g id="ytick_12">
     <g id="line2d_103">
      <g>
       <use xlink:href="#me66416fa92" x="67.974375" y="167.472495" style="stroke: #000000; stroke-width: 0.6"/>
      </g>
     </g>
     <g id="line2d_104">
      <g>
       <use xlink:href="#m957ad6cfc6" x="425.094375" y="167.472495" style="stroke: #000000; stroke-width: 0.6"/>
      </g>
     </g>
    </g>
    <g id="ytick_13">
     <g id="line2d_105">
      <g>
       <use xlink:href="#me66416fa92" x="67.974375" y="160.702346" style="stroke: #000000; stroke-width: 0.6"/>
      </g>
     </g>
     <g id="line2d_106">
      <g>
       <use xlink:href="#m957ad6cfc6" x="425.094375" y="160.702346" style="stroke: #000000; stroke-width: 0.6"/>
      </g>
     </g>
    </g>
    <g id="ytick_14">
     <g id="line2d_107">
      <g>
       <use xlink:href="#me66416fa92" x="67.974375" y="153.932197" style="stroke: #000000; stroke-width: 0.6"/>
      </g>
     </g>
     <g id="line2d_108">
      <g>
       <use xlink:href="#m957ad6cfc6" x="425.094375" y="153.932197" style="stroke: #000000; stroke-width: 0.6"/>
      </g>
     </g>
    </g>
    <g id="ytick_15">
     <g id="line2d_109">
      <g>
       <use xlink:href="#me66416fa92" x="67.974375" y="140.391898" style="stroke: #000000; stroke-width: 0.6"/>
      </g>
     </g>
     <g id="line2d_110">
      <g>
       <use xlink:href="#m957ad6cfc6" x="425.094375" y="140.391898" style="stroke: #000000; stroke-width: 0.6"/>
      </g>
     </g>
    </g>
    <g id="ytick_16">
     <g id="line2d_111">
      <g>
       <use xlink:href="#me66416fa92" x="67.974375" y="133.621749" style="stroke: #000000; stroke-width: 0.6"/>
      </g>
     </g>
     <g id="line2d_112">
      <g>
       <use xlink:href="#m957ad6cfc6" x="425.094375" y="133.621749" style="stroke: #000000; stroke-width: 0.6"/>
      </g>
     </g>
    </g>
    <g id="ytick_17">
     <g id="line2d_113">
      <g>
       <use xlink:href="#me66416fa92" x="67.974375" y="126.8516" style="stroke: #000000; stroke-width: 0.6"/>
      </g>
     </g>
     <g id="line2d_114">
      <g>
       <use xlink:href="#m957ad6cfc6" x="425.094375" y="126.8516" style="stroke: #000000; stroke-width: 0.6"/>
      </g>
     </g>
    </g>
    <g id="ytick_18">
     <g id="line2d_115">
      <g>
       <use xlink:href="#me66416fa92" x="67.974375" y="120.081451" style="stroke: #000000; stroke-width: 0.6"/>
      </g>
     </g>
     <g id="line2d_116">
      <g>
       <use xlink:href="#m957ad6cfc6" x="425.094375" y="120.081451" style="stroke: #000000; stroke-width: 0.6"/>
      </g>
     </g>
    </g>
    <g id="ytick_19">
     <g id="line2d_117">
      <g>
       <use xlink:href="#me66416fa92" x="67.974375" y="106.541152" style="stroke: #000000; stroke-width: 0.6"/>
      </g>
     </g>
     <g id="line2d_118">
      <g>
       <use xlink:href="#m957ad6cfc6" x="425.094375" y="106.541152" style="stroke: #000000; stroke-width: 0.6"/>
      </g>
     </g>
    </g>
    <g id="ytick_20">
     <g id="line2d_119">
      <g>
       <use xlink:href="#me66416fa92" x="67.974375" y="99.771003" style="stroke: #000000; stroke-width: 0.6"/>
      </g>
     </g>
     <g id="line2d_120">
      <g>
       <use xlink:href="#m957ad6cfc6" x="425.094375" y="99.771003" style="stroke: #000000; stroke-width: 0.6"/>
      </g>
     </g>
    </g>
    <g id="ytick_21">
     <g id="line2d_121">
      <g>
       <use xlink:href="#me66416fa92" x="67.974375" y="93.000854" style="stroke: #000000; stroke-width: 0.6"/>
      </g>
     </g>
     <g id="line2d_122">
      <g>
       <use xlink:href="#m957ad6cfc6" x="425.094375" y="93.000854" style="stroke: #000000; stroke-width: 0.6"/>
      </g>
     </g>
    </g>
    <g id="ytick_22">
     <g id="line2d_123">
      <g>
       <use xlink:href="#me66416fa92" x="67.974375" y="86.230704" style="stroke: #000000; stroke-width: 0.6"/>
      </g>
     </g>
     <g id="line2d_124">
      <g>
       <use xlink:href="#m957ad6cfc6" x="425.094375" y="86.230704" style="stroke: #000000; stroke-width: 0.6"/>
      </g>
     </g>
    </g>
    <g id="ytick_23">
     <g id="line2d_125">
      <g>
       <use xlink:href="#me66416fa92" x="67.974375" y="72.690406" style="stroke: #000000; stroke-width: 0.6"/>
      </g>
     </g>
     <g id="line2d_126">
      <g>
       <use xlink:href="#m957ad6cfc6" x="425.094375" y="72.690406" style="stroke: #000000; stroke-width: 0.6"/>
      </g>
     </g>
    </g>
    <g id="ytick_24">
     <g id="line2d_127">
      <g>
       <use xlink:href="#me66416fa92" x="67.974375" y="65.920257" style="stroke: #000000; stroke-width: 0.6"/>
      </g>
     </g>
     <g id="line2d_128">
      <g>
       <use xlink:href="#m957ad6cfc6" x="425.094375" y="65.920257" style="stroke: #000000; stroke-width: 0.6"/>
      </g>
     </g>
    </g>
    <g id="ytick_25">
     <g id="line2d_129">
      <g>
       <use xlink:href="#me66416fa92" x="67.974375" y="59.150107" style="stroke: #000000; stroke-width: 0.6"/>
      </g>
     </g>
     <g id="line2d_130">
      <g>
       <use xlink:href="#m957ad6cfc6" x="425.094375" y="59.150107" style="stroke: #000000; stroke-width: 0.6"/>
      </g>
     </g>
    </g>
    <g id="ytick_26">
     <g id="line2d_131">
      <g>
       <use xlink:href="#me66416fa92" x="67.974375" y="52.379958" style="stroke: #000000; stroke-width: 0.6"/>
      </g>
     </g>
     <g id="line2d_132">
      <g>
       <use xlink:href="#m957ad6cfc6" x="425.094375" y="52.379958" style="stroke: #000000; stroke-width: 0.6"/>
      </g>
     </g>
    </g>
    <g id="ytick_27">
     <g id="line2d_133">
      <g>
       <use xlink:href="#me66416fa92" x="67.974375" y="38.83966" style="stroke: #000000; stroke-width: 0.6"/>
      </g>
     </g>
     <g id="line2d_134">
      <g>
       <use xlink:href="#m957ad6cfc6" x="425.094375" y="38.83966" style="stroke: #000000; stroke-width: 0.6"/>
      </g>
     </g>
    </g>
    <g id="ytick_28">
     <g id="line2d_135">
      <g>
       <use xlink:href="#me66416fa92" x="67.974375" y="32.06951" style="stroke: #000000; stroke-width: 0.6"/>
      </g>
     </g>
     <g id="line2d_136">
      <g>
       <use xlink:href="#m957ad6cfc6" x="425.094375" y="32.06951" style="stroke: #000000; stroke-width: 0.6"/>
      </g>
     </g>
    </g>
    <g id="ytick_29">
     <g id="line2d_137">
      <g>
       <use xlink:href="#me66416fa92" x="67.974375" y="25.299361" style="stroke: #000000; stroke-width: 0.6"/>
      </g>
     </g>
     <g id="line2d_138">
      <g>
       <use xlink:href="#m957ad6cfc6" x="425.094375" y="25.299361" style="stroke: #000000; stroke-width: 0.6"/>
      </g>
     </g>
    </g>
    <g id="ytick_30">
     <g id="line2d_139">
      <g>
       <use xlink:href="#me66416fa92" x="67.974375" y="18.529212" style="stroke: #000000; stroke-width: 0.6"/>
      </g>
     </g>
     <g id="line2d_140">
      <g>
       <use xlink:href="#m957ad6cfc6" x="425.094375" y="18.529212" style="stroke: #000000; stroke-width: 0.6"/>
      </g>
     </g>
    </g>
    <g id="text_16">
     <!-- Ch2 Signal (volts) -->
     <g transform="translate(20.877187 188.227822) rotate(-90) scale(0.18 -0.18)">
      <defs>
       <path id="DejaVuSans-43" d="M 4122 4306 
L 4122 3641 
Q 3803 3938 3442 4084 
Q 3081 4231 2675 4231 
Q 1875 4231 1450 3742 
Q 1025 3253 1025 2328 
Q 1025 1406 1450 917 
Q 1875 428 2675 428 
Q 3081 428 3442 575 
Q 3803 722 4122 1019 
L 4122 359 
Q 3791 134 3420 21 
Q 3050 -91 2638 -91 
Q 1578 -91 968 557 
Q 359 1206 359 2328 
Q 359 3453 968 4101 
Q 1578 4750 2638 4750 
Q 3056 4750 3426 4639 
Q 3797 4528 4122 4306 
z
" transform="scale(0.015625)"/>
       <path id="DejaVuSans-68" d="M 3513 2113 
L 3513 0 
L 2938 0 
L 2938 2094 
Q 2938 2591 2744 2837 
Q 2550 3084 2163 3084 
Q 1697 3084 1428 2787 
Q 1159 2491 1159 1978 
L 1159 0 
L 581 0 
L 581 4863 
L 1159 4863 
L 1159 2956 
Q 1366 3272 1645 3428 
Q 1925 3584 2291 3584 
Q 2894 3584 3203 3211 
Q 3513 2838 3513 2113 
z
" transform="scale(0.015625)"/>
       <path id="DejaVuSans-53" d="M 3425 4513 
L 3425 3897 
Q 3066 4069 2747 4153 
Q 2428 4238 2131 4238 
Q 1616 4238 1336 4038 
Q 1056 3838 1056 3469 
Q 1056 3159 1242 3001 
Q 1428 2844 1947 2747 
L 2328 2669 
Q 3034 2534 3370 2195 
Q 3706 1856 3706 1288 
Q 3706 609 3251 259 
Q 2797 -91 1919 -91 
Q 1588 -91 1214 -16 
Q 841 59 441 206 
L 441 856 
Q 825 641 1194 531 
Q 1563 422 1919 422 
Q 2459 422 2753 634 
Q 3047 847 3047 1241 
Q 3047 1584 2836 1778 
Q 2625 1972 2144 2069 
L 1759 2144 
Q 1053 2284 737 2584 
Q 422 2884 422 3419 
Q 422 4038 858 4394 
Q 1294 4750 2059 4750 
Q 2388 4750 2728 4690 
Q 3069 4631 3425 4513 
z
" transform="scale(0.015625)"/>
       <path id="DejaVuSans-67" d="M 2906 1791 
Q 2906 2416 2648 2759 
Q 2391 3103 1925 3103 
Q 1463 3103 1205 2759 
Q 947 2416 947 1791 
Q 947 1169 1205 825 
Q 1463 481 1925 481 
Q 2391 481 2648 825 
Q 2906 1169 2906 1791 
z
M 3481 434 
Q 3481 -459 3084 -895 
Q 2688 -1331 1869 -1331 
Q 1566 -1331 1297 -1286 
Q 1028 -1241 775 -1147 
L 775 -588 
Q 1028 -725 1275 -790 
Q 1522 -856 1778 -856 
Q 2344 -856 2625 -561 
Q 2906 -266 2906 331 
L 2906 616 
Q 2728 306 2450 153 
Q 2172 0 1784 0 
Q 1141 0 747 490 
Q 353 981 353 1791 
Q 353 2603 747 3093 
Q 1141 3584 1784 3584 
Q 2172 3584 2450 3431 
Q 2728 3278 2906 2969 
L 2906 3500 
L 3481 3500 
L 3481 434 
z
" transform="scale(0.015625)"/>
       <path id="DejaVuSans-61" d="M 2194 1759 
Q 1497 1759 1228 1600 
Q 959 1441 959 1056 
Q 959 750 1161 570 
Q 1363 391 1709 391 
Q 2188 391 2477 730 
Q 2766 1069 2766 1631 
L 2766 1759 
L 2194 1759 
z
M 3341 1997 
L 3341 0 
L 2766 0 
L 2766 531 
Q 2569 213 2275 61 
Q 1981 -91 1556 -91 
Q 1019 -91 701 211 
Q 384 513 384 1019 
Q 384 1609 779 1909 
Q 1175 2209 1959 2209 
L 2766 2209 
L 2766 2266 
Q 2766 2663 2505 2880 
Q 2244 3097 1772 3097 
Q 1472 3097 1187 3025 
Q 903 2953 641 2809 
L 641 3341 
Q 956 3463 1253 3523 
Q 1550 3584 1831 3584 
Q 2591 3584 2966 3190 
Q 3341 2797 3341 1997 
z
" transform="scale(0.015625)"/>
       <path id="DejaVuSans-6c" d="M 603 4863 
L 1178 4863 
L 1178 0 
L 603 0 
L 603 4863 
z
" transform="scale(0.015625)"/>
       <path id="DejaVuSans-76" d="M 191 3500 
L 800 3500 
L 1894 563 
L 2988 3500 
L 3597 3500 
L 2284 0 
L 1503 0 
L 191 3500 
z
" transform="scale(0.015625)"/>
       <path id="DejaVuSans-74" d="M 1172 4494 
L 1172 3500 
L 2356 3500 
L 2356 3053 
L 1172 3053 
L 1172 1153 
Q 1172 725 1289 603 
Q 1406 481 1766 481 
L 2356 481 
L 2356 0 
L 1766 0 
Q 1100 0 847 248 
Q 594 497 594 1153 
L 594 3053 
L 172 3053 
L 172 3500 
L 594 3500 
L 594 4494 
L 1172 4494 
z
" transform="scale(0.015625)"/>
      </defs>
      <use xlink:href="#DejaVuSans-43"/>
      <use xlink:href="#DejaVuSans-68" x="69.824219"/>
      <use xlink:href="#DejaVuSans-32" x="133.203125"/>
      <use xlink:href="#DejaVuSans-20" x="196.826172"/>
      <use xlink:href="#DejaVuSans-53" x="228.613281"/>
      <use xlink:href="#DejaVuSans-69" x="292.089844"/>
      <use xlink:href="#DejaVuSans-67" x="319.873047"/>
      <use xlink:href="#DejaVuSans-6e" x="383.349609"/>
      <use xlink:href="#DejaVuSans-61" x="446.728516"/>
      <use xlink:href="#DejaVuSans-6c" x="508.007812"/>
      <use xlink:href="#DejaVuSans-20" x="535.791016"/>
      <use xlink:href="#DejaVuSans-28" x="567.578125"/>
      <use xlink:href="#DejaVuSans-76" x="606.591797"/>
      <use xlink:href="#DejaVuSans-6f" x="665.771484"/>
      <use xlink:href="#DejaVuSans-6c" x="726.953125"/>
      <use xlink:href="#DejaVuSans-74" x="754.736328"/>
      <use xlink:href="#DejaVuSans-73" x="793.945312"/>
      <use xlink:href="#DejaVuSans-29" x="846.044922"/>
     </g>
    </g>
   </g>
   <g id="line2d_141">
    <path d="M 84.207102 199.292197 
L 84.470069 196.584137 
L 84.999526 195.230107 
L 85.262668 199.292197 
L 85.529336 195.907122 
L 85.792126 194.553092 
L 86.057031 194.553092 
L 86.32176 198.615182 
L 86.849807 193.199063 
L 87.114712 193.876077 
L 87.377502 197.938167 
L 87.641878 194.553092 
L 87.908017 193.199063 
L 88.170631 193.876077 
L 88.437475 197.938167 
L 88.963583 192.522048 
L 89.227959 192.522048 
L 89.494979 197.261152 
L 89.760061 193.199063 
L 90.021617 192.522048 
L 90.286346 191.168018 
L 90.552837 195.907122 
L 90.817389 192.522048 
L 91.080356 191.845033 
L 91.345261 189.813988 
L 91.608051 193.876077 
L 92.136274 192.522048 
L 92.402766 189.136973 
L 92.665732 192.522048 
L 92.930637 192.522048 
L 93.195542 191.845033 
L 93.458508 187.782943 
L 93.723589 189.136973 
L 93.990257 192.522048 
L 94.253399 190.491003 
L 94.517952 187.105928 
L 94.782857 187.782943 
L 95.047409 193.876077 
L 95.573165 187.782943 
L 95.83807 186.428913 
L 96.104385 193.199063 
L 96.367352 191.845033 
L 96.896809 185.751898 
L 97.159775 190.491003 
L 97.426267 193.199063 
L 97.955548 186.428913 
L 98.217633 186.428913 
L 98.483948 191.168018 
L 98.747266 187.782943 
L 99.012348 187.782943 
L 99.275314 183.720854 
L 99.806358 189.136973 
L 100.069853 187.105928 
L 100.332466 183.720854 
L 100.5979 183.720854 
L 100.862453 190.491003 
L 101.390324 184.397868 
L 101.656639 182.366824 
L 101.918195 187.782943 
L 102.18451 190.491003 
L 102.713967 184.397868 
L 102.97711 184.397868 
L 103.240076 188.459958 
L 103.771472 187.105928 
L 104.036025 182.366824 
L 104.300754 183.720854 
L 104.56372 189.136973 
L 105.355791 182.366824 
L 105.620696 187.782943 
L 105.885249 189.136973 
L 106.414706 183.720854 
L 106.679435 182.366824 
L 106.942225 185.751898 
L 107.207306 186.428913 
L 107.479085 185.074883 
L 107.734825 181.012794 
L 108.001492 181.012794 
L 108.266045 187.105928 
L 108.528835 186.428913 
L 109.05935 180.335779 
L 109.32214 181.012794 
L 109.585635 185.074883 
L 109.850363 183.720854 
L 110.115092 183.720854 
L 110.379645 178.981749 
L 110.64455 180.335779 
L 110.909102 186.428913 
L 111.702407 178.981749 
L 111.965197 181.012794 
L 112.230278 185.074883 
L 112.493421 183.043839 
L 112.758149 183.043839 
L 113.022702 178.304734 
L 113.287607 179.658764 
L 113.554098 185.751898 
L 113.815126 183.720854 
L 114.082498 183.043839 
L 114.347051 179.658764 
L 114.610017 180.335779 
L 114.872807 183.720854 
L 115.137712 182.366824 
L 115.404027 182.366824 
L 115.668756 177.627719 
L 115.930135 177.627719 
L 116.194688 183.043839 
L 116.459593 183.043839 
L 116.988874 178.304734 
L 117.255365 175.596674 
L 117.781298 181.012794 
L 118.04585 179.658764 
L 118.575484 175.596674 
L 119.104765 180.335779 
L 119.369847 178.304734 
L 119.631403 178.304734 
L 119.898247 173.56563 
L 120.163328 173.56563 
L 120.426294 180.335779 
L 120.689436 179.658764 
L 120.954518 178.304734 
L 121.482389 173.56563 
L 121.74888 175.596674 
L 122.012023 179.658764 
L 122.275341 177.627719 
L 122.540246 177.627719 
L 122.804094 174.91966 
L 123.069351 174.91966 
L 123.334433 177.627719 
L 123.597046 178.304734 
L 123.864243 177.627719 
L 124.391938 173.56563 
L 124.920161 179.658764 
L 125.186476 176.950704 
L 125.447856 176.950704 
L 125.714171 172.888615 
L 125.977137 172.888615 
L 126.241866 176.950704 
L 126.506771 178.981749 
L 126.769737 175.596674 
L 127.036229 176.273689 
L 127.300252 172.2116 
L 127.563395 172.2116 
L 127.82971 176.950704 
L 128.092676 176.950704 
L 128.358991 174.242645 
L 128.620195 174.242645 
L 128.886686 170.85757 
L 129.151591 171.534585 
L 129.414557 176.950704 
L 129.67911 175.596674 
L 130.472591 168.826525 
L 130.73732 169.50354 
L 131.001872 175.596674 
L 131.529391 172.888615 
L 132.058848 168.14951 
L 132.321991 169.50354 
L 132.588482 174.91966 
L 133.116706 171.534585 
L 133.379496 170.85757 
L 133.645811 168.14951 
L 133.910539 168.826525 
L 134.175268 174.242645 
L 134.438411 173.56563 
L 134.701377 170.85757 
L 134.967692 170.85757 
L 135.232597 166.118465 
L 135.493977 166.79548 
L 135.760292 172.2116 
L 136.025373 172.888615 
L 136.288163 170.180555 
L 136.552892 170.85757 
L 136.817444 166.79548 
L 137.082173 167.472495 
L 137.346902 171.534585 
L 137.610044 173.56563 
L 137.875478 169.50354 
L 138.138444 170.180555 
L 138.403349 166.79548 
L 138.669664 166.118465 
L 139.197183 171.534585 
L 139.461912 169.50354 
L 139.724878 168.826525 
L 140.254159 164.764436 
L 140.517302 165.441451 
L 141.046759 168.826525 
L 141.311664 167.472495 
L 141.574454 167.472495 
L 141.839007 164.764436 
L 142.103735 164.087421 
L 142.368464 165.441451 
L 142.634955 170.180555 
L 143.160711 166.118465 
L 143.425793 166.118465 
L 143.690874 162.056376 
L 143.954369 162.733391 
L 144.221036 168.14951 
L 144.483826 170.180555 
L 144.750141 167.472495 
L 145.014694 166.79548 
L 145.275898 164.764436 
L 145.54045 164.087421 
L 145.805531 165.441451 
L 146.07167 168.14951 
L 146.336046 168.826525 
L 146.599365 166.79548 
L 146.862331 167.472495 
L 147.12706 164.764436 
L 147.393551 163.410406 
L 147.656341 164.087421 
L 147.921246 169.50354 
L 148.186151 169.50354 
L 148.45088 166.118465 
L 148.715785 166.79548 
L 148.978575 162.733391 
L 149.243304 162.056376 
L 149.770999 166.79548 
L 150.035551 166.79548 
L 150.300104 165.441451 
L 150.564832 165.441451 
L 150.828504 162.733391 
L 151.095171 161.379361 
L 151.356551 162.056376 
L 151.621103 166.79548 
L 151.886008 166.79548 
L 152.1525 163.410406 
L 152.417228 164.087421 
L 152.678432 160.702346 
L 152.944747 160.025331 
L 153.2093 161.379361 
L 153.738757 166.118465 
L 154.000313 164.087421 
L 154.531357 162.733391 
L 154.796262 159.348316 
L 155.058347 159.348316 
L 155.589567 166.118465 
L 155.851476 163.410406 
L 156.117967 162.056376 
L 156.382696 161.379361 
L 156.644252 159.348316 
L 156.908981 158.671301 
L 157.173886 160.025331 
L 157.438614 165.441451 
L 157.701757 165.441451 
L 157.966309 162.733391 
L 158.232801 162.733391 
L 158.760672 159.348316 
L 159.025048 159.348316 
L 159.288543 161.379361 
L 159.553096 164.764436 
L 159.816414 163.410406 
L 160.083082 161.379361 
L 160.345872 162.733391 
L 160.612539 158.671301 
L 160.875153 157.994286 
L 161.140587 159.348316 
L 161.670044 163.410406 
L 162.195977 160.025331 
L 162.462644 160.025331 
L 162.727197 156.640257 
L 162.992102 156.640257 
L 163.784525 162.056376 
L 164.04661 160.702346 
L 164.313102 160.702346 
L 164.57783 160.025331 
L 164.84062 156.640257 
L 165.107111 156.640257 
L 165.633044 161.379361 
L 165.897596 162.056376 
L 166.162325 160.702346 
L 166.427054 160.702346 
L 166.692135 159.348316 
L 166.954749 155.963242 
L 167.221769 155.963242 
L 168.014369 161.379361 
L 168.277511 160.025331 
L 168.54224 159.348316 
L 168.808555 160.025331 
L 169.070287 155.963242 
L 169.335016 155.963242 
L 169.601684 157.317271 
L 170.12744 161.379361 
L 170.658484 157.317271 
L 170.923212 157.994286 
L 171.186179 153.932197 
L 171.448969 153.255182 
L 171.713874 153.932197 
L 171.978955 155.963242 
L 172.245094 160.025331 
L 172.508589 158.671301 
L 172.771202 156.640257 
L 173.037165 156.640257 
L 173.564331 153.255182 
L 173.828883 152.578167 
L 174.095375 153.932197 
L 174.358341 157.994286 
L 174.624832 159.348316 
L 174.886565 156.640257 
L 175.151293 155.963242 
L 175.417785 156.640257 
L 175.945832 151.901152 
L 176.208798 151.901152 
L 176.73808 156.640257 
L 177.002808 155.963242 
L 177.266127 154.609212 
L 177.532266 153.932197 
L 177.794174 154.609212 
L 178.060313 151.224137 
L 178.324161 150.547122 
L 178.588537 151.224137 
L 178.853266 152.578167 
L 179.118171 156.640257 
L 179.382547 155.963242 
L 179.646218 153.255182 
L 179.909008 152.578167 
L 180.175676 152.578167 
L 180.438818 150.547122 
L 180.703547 149.870107 
L 180.966689 150.547122 
L 181.496147 155.963242 
L 182.024194 153.255182 
L 182.289099 152.578167 
L 182.555414 153.255182 
L 182.820319 149.193092 
L 183.084872 148.516077 
L 183.346075 149.193092 
L 183.610804 150.547122 
L 183.875533 155.286227 
L 184.1422 155.963242 
L 184.40358 153.255182 
L 184.669895 152.578167 
L 184.933038 153.255182 
L 185.4632 148.516077 
L 185.726343 147.839063 
L 186.519648 154.609212 
L 187.049105 150.547122 
L 187.313658 150.547122 
L 187.578563 149.193092 
L 188.108196 145.808018 
L 188.370986 145.808018 
L 188.897976 150.547122 
L 189.162705 151.224137 
L 189.692339 148.516077 
L 189.956891 149.193092 
L 190.487054 145.808018 
L 190.75143 145.131003 
L 191.015278 145.808018 
L 191.544735 151.224137 
L 191.807525 150.547122 
L 192.337687 147.839063 
L 192.601887 148.516077 
L 192.865559 145.808018 
L 193.128701 144.453988 
L 193.39343 143.776973 
L 193.659745 144.453988 
L 194.187792 150.547122 
L 194.450582 150.547122 
L 194.981626 147.839063 
L 195.244416 148.516077 
L 195.507558 146.485033 
L 195.77405 145.808018 
L 196.03684 144.453988 
L 196.303331 145.131003 
L 196.829263 149.193092 
L 197.358016 175.596674 
L 197.624507 147.162048 
L 197.887121 162.056376 
L 198.152026 145.808018 
L 198.417812 143.776973 
L 198.682541 139.714883 
L 198.947093 141.068913 
L 199.211822 149.870107 
L 199.473026 144.453988 
L 199.737755 147.839063 
L 200.002483 147.162048 
L 200.268798 144.453988 
L 200.533527 143.776973 
L 200.796669 145.131003 
L 201.059812 143.776973 
L 201.325774 141.068913 
L 201.588741 140.391898 
L 202.119961 141.745928 
L 202.382751 145.131003 
L 202.647656 145.808018 
L 202.912208 141.068913 
L 203.175174 142.422943 
L 203.439903 141.068913 
L 203.703046 141.068913 
L 204.232503 131.590704 
L 204.497232 132.944734 
L 204.76196 130.913689 
L 205.024927 131.590704 
L 205.291418 134.298764 
L 205.554384 139.714883 
L 205.820699 138.360854 
L 206.085604 136.329809 
L 206.34716 136.329809 
L 206.611537 135.652794 
L 206.87838 137.006824 
L 207.140994 134.298764 
L 207.404313 133.621749 
L 207.668689 133.621749 
L 207.933947 134.298764 
L 208.463404 142.422943 
L 208.728309 141.745928 
L 208.993038 143.099958 
L 209.257414 141.068913 
L 209.519499 141.745928 
L 209.783875 144.453988 
L 210.049838 150.547122 
L 210.314214 137.683839 
L 210.578766 140.391898 
L 210.841909 149.193092 
L 211.107166 149.870107 
L 211.370309 152.578167 
L 211.635214 147.162048 
L 211.89959 156.640257 
L 212.162909 151.224137 
L 212.429048 152.578167 
L 212.692366 137.683839 
L 212.956743 136.329809 
L 213.222 128.882645 
L 213.486905 130.913689 
L 213.751281 130.236674 
L 214.279857 132.944734 
L 214.54441 135.652794 
L 214.807376 137.006824 
L 215.072105 137.683839 
L 215.3356 137.006824 
L 215.601915 133.621749 
L 215.866467 134.298764 
L 216.129434 134.298764 
L 216.394339 132.267719 
L 217.188701 134.298764 
L 217.453254 132.267719 
L 217.716396 135.652794 
L 217.979186 137.006824 
L 218.245677 139.714883 
L 218.508467 138.360854 
L 218.77302 135.652794 
L 219.037748 134.298764 
L 219.304416 133.621749 
L 219.56703 134.975779 
L 219.829996 130.913689 
L 220.094548 130.236674 
L 220.359453 128.20563 
L 220.625768 128.20563 
L 221.153287 130.913689 
L 221.416253 133.621749 
L 221.682568 134.298764 
L 221.945711 131.590704 
L 222.475873 128.882645 
L 222.740426 128.882645 
L 223.005154 128.20563 
L 223.269883 126.8516 
L 223.534612 124.820555 
L 223.797402 124.820555 
L 224.324921 126.174585 
L 224.854202 129.55966 
L 225.119107 130.913689 
L 225.384188 129.55966 
L 225.649093 127.528615 
L 225.912059 126.8516 
L 226.176788 126.8516 
L 226.439578 128.20563 
L 226.706069 124.14354 
L 227.233059 122.78951 
L 227.497435 122.78951 
L 228.027422 124.14354 
L 228.55494 127.528615 
L 229.084222 124.14354 
L 229.347364 122.78951 
L 229.611917 122.78951 
L 229.876822 124.14354 
L 230.141727 121.43548 
L 230.408218 120.081451 
L 230.67277 119.404436 
L 230.93415 119.404436 
L 231.199055 120.081451 
L 231.730099 123.466525 
L 231.991126 127.528615 
L 232.257441 126.8516 
L 232.786899 123.466525 
L 233.050218 122.112495 
L 233.577913 122.112495 
L 233.842465 120.758465 
L 234.107194 118.727421 
L 234.373509 118.727421 
L 234.636651 118.050406 
L 234.901556 118.727421 
L 235.431366 121.43548 
L 235.694156 124.14354 
L 235.958885 122.78951 
L 236.223966 120.758465 
L 236.487109 120.081451 
L 236.751837 118.727421 
L 237.014627 119.404436 
L 237.281119 118.727421 
L 238.073895 114.665331 
L 238.338447 114.665331 
L 238.60159 115.342346 
L 239.129461 118.050406 
L 239.395776 121.43548 
L 239.925057 120.081451 
L 240.18961 120.081451 
L 240.454515 120.758465 
L 240.715895 119.404436 
L 240.980447 120.758465 
L 241.245176 118.050406 
L 241.510081 111.957271 
L 241.773223 111.280257 
L 242.039891 108.572197 
L 242.304443 109.249212 
L 242.567586 110.603242 
L 242.830552 111.280257 
L 243.098277 113.988316 
L 243.362653 115.342346 
L 244.154372 109.926227 
L 244.419453 109.926227 
L 244.683829 110.603242 
L 244.948206 111.957271 
L 245.212582 108.572197 
L 245.475724 107.895182 
L 245.740453 106.541152 
L 246.003596 106.541152 
L 246.534639 107.895182 
L 247.325124 113.311301 
L 247.589853 112.634286 
L 247.854582 109.926227 
L 248.120897 109.249212 
L 248.383863 107.895182 
L 248.648768 107.895182 
L 248.91332 109.249212 
L 249.442954 105.187122 
L 249.972059 103.833092 
L 250.233087 103.833092 
L 250.762368 105.187122 
L 251.029035 107.218167 
L 251.29394 107.895182 
L 251.556907 109.249212 
L 251.821283 107.895182 
L 252.086188 105.187122 
L 252.615998 102.479063 
L 252.87914 102.479063 
L 253.14193 103.156077 
L 253.408421 101.802048 
L 253.671388 99.771003 
L 253.93453 99.093988 
L 254.200845 97.739958 
L 254.463811 97.739958 
L 254.995031 99.093988 
L 255.257821 101.802048 
L 255.787455 104.510107 
L 256.052008 103.833092 
L 256.316031 101.802048 
L 257.108103 99.771003 
L 257.373184 101.802048 
L 257.637912 100.448018 
L 257.900702 97.739958 
L 258.167194 97.062943 
L 258.431746 95.708913 
L 259.22417 95.708913 
L 259.48696 97.062943 
L 259.751512 97.739958 
L 260.01818 100.448018 
L 260.282909 101.125033 
L 260.543936 98.416973 
L 260.810604 97.739958 
L 261.075332 95.708913 
L 261.338299 95.708913 
L 261.602322 95.031898 
L 261.866875 96.385928 
L 262.13178 93.677868 
L 262.396156 93.000854 
L 262.659122 90.969809 
L 262.924908 90.292794 
L 263.454366 90.292794 
L 263.717332 91.646824 
L 263.981885 92.323839 
L 264.2482 93.677868 
L 264.774308 99.093988 
L 265.040623 99.093988 
L 265.303766 96.385928 
L 265.570081 96.385928 
L 265.833576 95.031898 
L 266.096366 95.031898 
L 266.361271 94.354883 
L 266.627762 91.646824 
L 266.890904 84.19966 
L 267.155809 80.814585 
L 267.420362 80.13757 
L 267.684914 80.13757 
L 267.949819 75.398465 
L 268.475752 75.398465 
L 268.740657 74.721451 
L 269.003799 75.398465 
L 269.535901 75.398465 
L 269.797104 74.044436 
L 270.593406 65.920257 
L 271.119338 63.212197 
L 271.384419 64.566227 
L 271.648972 59.827122 
L 271.914405 58.473092 
L 272.444039 55.088018 
L 272.705067 53.733988 
L 273.234524 53.733988 
L 273.499253 54.411003 
L 274.028534 60.504137 
L 274.293263 57.796077 
L 274.822544 55.088018 
L 275.085863 52.379958 
L 275.350591 53.056973 
L 275.615144 48.994883 
L 275.879873 47.640854 
L 276.142663 47.640854 
L 276.407215 46.963839 
L 277.465249 39.516674 
L 277.728391 38.83966 
L 278.524516 38.83966 
L 278.787835 39.516674 
L 279.050625 41.547719 
L 279.315178 42.224734 
L 279.844635 40.870704 
L 280.63794 35.454585 
L 281.167574 34.100555 
L 281.430187 34.77757 
L 281.694035 32.06951 
L 281.958587 30.71548 
L 282.225431 28.007421 
L 282.488221 27.330406 
L 282.751364 25.976376 
L 283.018384 25.976376 
L 283.809221 28.007421 
L 284.075007 29.361451 
L 284.60235 32.746525 
L 284.869017 33.42354 
L 285.133746 32.746525 
L 285.395126 30.71548 
L 285.66197 30.038465 
L 285.927051 28.007421 
L 286.191427 27.330406 
L 286.718946 27.330406 
L 286.984027 28.684436 
L 287.24717 28.007421 
L 287.512251 25.976376 
L 288.30679 23.945331 
L 288.567817 24.622346 
L 289.360769 28.684436 
L 290.156542 34.77757 
L 290.419508 35.454585 
L 291.742271 32.06951 
L 292.004884 32.06951 
L 292.269789 32.746525 
L 292.536457 34.77757 
L 292.798013 32.746525 
L 293.328175 31.392495 
L 294.122538 31.392495 
L 294.383918 32.746525 
L 294.650233 33.42354 
L 296.236667 45.609809 
L 296.499809 46.286824 
L 297.029795 44.932794 
L 297.823805 44.932794 
L 298.086948 46.286824 
L 298.351676 46.963839 
L 298.614819 48.317868 
L 299.144981 46.963839 
L 299.40971 47.640854 
L 299.674439 47.640854 
L 300.4651 49.671898 
L 300.994558 52.379958 
L 301.257876 55.088018 
L 301.522076 56.442048 
L 301.789273 59.827122 
L 302.054001 61.181152 
L 302.316791 64.566227 
L 302.581344 64.566227 
L 302.84431 65.243242 
L 303.110625 65.243242 
L 303.37553 65.920257 
L 303.638144 65.920257 
L 304.16672 67.274286 
L 304.433035 68.628316 
L 304.695296 72.013391 
L 304.961611 72.690406 
L 305.226692 70.659361 
L 305.48913 69.982346 
L 306.018587 69.982346 
L 307.338706 73.367421 
L 307.605373 75.398465 
L 307.86834 76.07548 
L 308.660763 83.522645 
L 308.926726 85.553689 
L 309.191807 86.230704 
L 309.456183 86.230704 
L 310.514217 88.938764 
L 311.569254 97.739958 
L 311.834336 97.062943 
L 312.098712 97.062943 
L 312.627112 98.416973 
L 312.893251 99.771003 
L 313.156393 100.448018 
L 313.419359 101.802048 
L 313.685674 102.479063 
L 315.80086 118.727421 
L 316.063474 119.404436 
L 317.386942 119.404436 
L 317.914813 120.758465 
L 318.181304 122.112495 
L 318.442332 122.78951 
L 318.708823 124.14354 
L 318.973199 123.466525 
L 319.764036 123.466525 
L 320.030351 124.14354 
L 320.295256 124.14354 
L 320.824538 125.49757 
L 321.08768 126.8516 
L 321.880104 132.267719 
L 322.146243 132.944734 
L 323.203924 141.068913 
L 323.730033 141.068913 
L 323.995114 140.391898 
L 324.25949 140.391898 
L 324.524747 139.714883 
L 324.7893 139.714883 
L 325.054205 140.391898 
L 325.317171 140.391898 
L 325.846981 141.745928 
L 326.111534 143.099958 
L 326.376967 141.745928 
L 326.90431 140.391898 
L 328.224781 140.391898 
L 328.489333 141.068913 
L 328.753886 142.422943 
L 329.020553 143.099958 
L 329.283696 144.453988 
L 329.548248 145.131003 
L 329.813153 146.485033 
L 330.075767 147.162048 
L 330.342435 148.516077 
L 330.605401 149.193092 
L 330.870306 150.547122 
L 331.133096 150.547122 
L 331.397648 149.193092 
L 331.664316 149.193092 
L 332.454625 147.162048 
L 332.721116 147.162048 
L 332.984258 145.808018 
L 333.247577 145.808018 
L 333.777387 149.193092 
L 334.040353 145.808018 
L 334.307021 145.131003 
L 334.569987 143.099958 
L 334.834539 143.099958 
L 335.099268 141.745928 
L 335.363821 141.068913 
L 336.686054 141.068913 
L 337.478654 143.099958 
L 337.744969 143.099958 
L 338.272312 144.453988 
L 338.537393 145.808018 
L 338.80265 145.808018 
L 339.85945 140.391898 
L 340.122417 139.714883 
L 340.387145 137.683839 
L 340.651874 137.006824 
L 340.915369 134.975779 
L 341.444827 133.621749 
L 341.709379 134.298764 
L 341.972345 133.621749 
L 342.239365 132.267719 
L 342.500569 130.236674 
L 342.765121 130.236674 
L 343.294403 126.8516 
L 343.824213 125.49757 
L 344.087708 124.14354 
L 344.618751 122.78951 
L 344.882423 122.78951 
L 345.146975 122.112495 
L 345.411704 122.112495 
L 345.937989 120.758465 
L 346.202541 121.43548 
L 346.73147 121.43548 
L 346.996375 122.112495 
L 347.526185 120.758465 
L 347.788975 118.050406 
L 348.055466 116.696376 
L 348.320019 113.988316 
L 348.581399 112.634286 
L 348.845951 109.926227 
L 349.112442 109.249212 
L 349.375409 107.218167 
L 349.642076 106.541152 
L 349.903456 105.187122 
L 350.168185 104.510107 
L 350.432914 104.510107 
L 350.699229 105.187122 
L 350.963957 101.125033 
L 351.226747 99.771003 
L 351.491652 97.062943 
L 351.756028 96.385928 
L 352.282666 93.000854 
L 352.548805 91.646824 
L 352.814238 90.969809 
L 353.078615 89.615779 
L 353.340171 88.938764 
L 353.607015 87.584734 
L 353.869981 87.584734 
L 354.13471 86.907719 
L 354.3975 86.907719 
L 355.191686 84.876674 
L 355.456591 83.522645 
L 355.721143 84.19966 
L 355.985872 83.522645 
L 356.250424 84.19966 
L 356.778296 81.4916 
L 358.364729 69.982346 
L 358.627872 69.305331 
L 358.894187 67.951301 
L 359.157153 67.274286 
L 359.420472 65.920257 
L 359.686787 65.920257 
L 359.951515 66.597271 
L 361.008492 59.150107 
L 361.271634 57.796077 
L 361.537949 55.765033 
L 361.801797 55.088018 
L 362.066525 53.056973 
L 362.329844 52.379958 
L 362.595983 51.025928 
L 362.857539 50.348913 
L 363.123678 48.994883 
L 363.389464 48.994883 
L 363.915044 47.640854 
L 364.181359 47.640854 
L 364.446264 46.963839 
L 365.766383 46.963839 
L 366.032874 46.286824 
L 366.295664 44.255779 
L 366.560569 43.578764 
L 366.823535 40.870704 
L 367.087559 40.193689 
L 367.883331 36.1316 
L 368.14665 35.454585 
L 368.411203 34.100555 
L 368.674345 33.42354 
L 368.938897 32.06951 
L 369.203626 32.746525 
L 369.466769 34.77757 
L 370.526741 27.330406 
L 371.056199 25.976376 
L 371.320927 24.622346 
L 371.583717 22.591301 
L 372.375965 20.560257 
L 373.168741 20.560257 
L 373.435408 21.237271 
L 373.963103 21.237271 
L 375.550066 25.299361 
L 375.813561 24.622346 
L 376.078466 24.622346 
L 376.341256 23.268316 
L 376.605985 23.268316 
L 376.870537 21.914286 
L 377.398232 20.560257 
L 377.662608 20.560257 
L 377.929628 19.883242 
L 379.250099 19.883242 
L 379.516591 21.237271 
L 379.777618 23.268316 
L 380.042347 21.237271 
L 381.099499 18.529212 
L 381.895624 18.529212 
L 382.160353 17.852197 
L 382.42138 18.529212 
L 382.950838 18.529212 
L 383.217858 19.206227 
L 383.479238 19.206227 
L 384.010634 20.560257 
L 384.27501 21.914286 
L 384.53921 22.591301 
L 384.803763 23.945331 
L 385.068315 24.622346 
L 385.331634 26.653391 
L 385.594248 27.330406 
L 386.124234 30.71548 
L 386.651929 33.42354 
L 387.709258 33.42354 
L 387.975749 34.100555 
L 388.505383 34.100555 
L 388.766586 34.77757 
L 389.032901 34.77757 
L 389.560949 36.1316 
L 389.825501 36.1316 
L 390.35302 37.48563 
L 390.884064 41.547719 
L 391.147559 40.870704 
L 391.942097 40.870704 
L 392.46803 42.224734 
L 392.997664 42.224734 
L 393.260806 53.733988 
L 393.527474 56.442048 
L 394.053759 70.659361 
L 394.318311 42.901749 
L 395.114612 42.901749 
L 395.377402 74.721451 
L 395.642131 43.578764 
L 395.905802 43.578764 
L 396.435436 44.932794 
L 396.700165 44.932794 
L 398.021693 48.317868 
L 398.549741 48.317868 
L 398.812707 47.640854 
L 399.079198 46.286824 
L 399.344103 46.286824 
L 399.606893 44.932794 
L 399.871798 44.932794 
L 400.134588 44.255779 
L 400.399493 44.255779 
L 400.665808 43.578764 
L 400.928774 43.578764 
L 401.193679 42.224734 
L 401.457174 42.224734 
L 401.986984 40.870704 
L 402.514679 40.870704 
L 402.779584 41.547719 
L 403.044137 42.901749 
L 403.307103 42.224734 
L 403.571656 40.870704 
L 403.838499 40.193689 
L 404.103228 40.193689 
L 404.36637 38.83966 
L 406.217357 38.83966 
L 406.48138 38.162645 
L 407.011014 38.162645 
L 407.540119 39.516674 
L 407.803262 39.516674 
L 408.332543 40.870704 
L 408.595333 40.870704 
L 408.861648 41.547719 
L 408.861648 41.547719 
" clip-path="url(#p116a1791dd)" style="fill: none; stroke: #000000; stroke-width: 1.5; stroke-linecap: square"/>
   </g>
   <g id="line2d_142">
    <path d="M 263.717332 92.775885 
L 264.2482 92.625243 
L 264.774308 92.112766 
L 265.303766 91.142697 
L 265.833576 89.675329 
L 266.627762 86.626757 
L 267.949819 80.208213 
L 270.593406 67.111216 
L 271.914405 61.408763 
L 272.969795 57.706823 
L 276.673706 45.831052 
L 277.993296 41.923909 
L 280.904079 34.860715 
L 282.225431 31.858363 
L 283.018384 30.62081 
L 283.809221 29.866586 
L 284.869017 29.275359 
L 286.984027 28.283649 
L 287.512251 28.25176 
L 288.041885 28.424382 
L 288.567817 28.815453 
L 289.360769 29.728484 
L 291.214399 32.04775 
L 293.063447 33.896498 
L 293.85587 35.180907 
L 294.650233 36.991425 
L 296.236667 41.51072 
L 297.55749 44.999087 
L 299.40971 49.629827 
L 300.4651 53.092964 
L 301.789273 58.361621 
L 303.37553 64.518532 
L 304.433035 67.829869 
L 307.074153 75.594935 
L 308.134655 79.719029 
L 310.514217 90.290113 
L 314.478098 108.513572 
L 315.80086 114.33218 
L 316.859247 118.022408 
L 317.914813 120.861549 
L 320.030351 126.055478 
L 321.08768 129.35347 
L 323.203924 136.335828 
L 323.995114 138.247593 
L 324.7893 139.578632 
L 325.582252 140.451543 
L 327.961639 142.629245 
L 329.020553 144.161691 
L 330.342435 146.090685 
L 330.870306 146.612402 
L 331.397648 146.899363 
L 331.927282 146.930631 
L 332.454625 146.717487 
L 333.247577 146.028397 
L 335.891339 143.14529 
L 336.951136 142.589235 
L 337.744969 142.184428 
L 338.272312 141.752402 
L 338.80265 141.098568 
L 339.593135 139.618887 
L 340.387145 137.571848 
L 341.709379 133.374256 
L 343.824213 126.638914 
L 345.146975 123.175457 
L 346.73147 119.012421 
L 347.788975 115.409434 
L 348.845951 110.954851 
L 351.226747 99.586522 
L 352.814238 92.656271 
L 354.13471 87.895546 
L 356.513567 79.697043 
L 357.835272 74.082166 
L 362.329844 54.155699 
L 363.389464 50.629615 
L 364.975898 46.280373 
L 366.560569 41.699375 
L 368.674345 34.499799 
L 370.789884 27.539882 
L 371.84827 24.882794 
L 372.63946 23.570334 
L 373.168741 23.043097 
L 373.699961 22.751803 
L 374.490622 22.597385 
L 375.813561 22.420363 
L 376.605985 22.095783 
L 378.192947 21.10162 
L 380.042347 20.050558 
L 381.629309 19.36247 
L 382.686462 19.112858 
L 383.479238 19.057201 
L 383.479238 19.057201 
" clip-path="url(#p116a1791dd)" style="fill: none; stroke: #0000ff; stroke-opacity: 0.3; stroke-width: 6; stroke-linecap: square"/>
   </g>
   <g id="line2d_143">
    <path d="M 263.717332 95.817317 
L 269.535901 71.209178 
L 272.179134 60.949172 
L 274.556229 52.606435 
L 276.407215 46.835773 
L 278.259435 41.79716 
L 279.844635 38.129297 
L 281.167574 35.555577 
L 282.488221 33.450143 
L 283.545902 32.109185 
L 284.60235 31.08345 
L 285.66197 30.374356 
L 286.718946 29.98916 
L 287.512251 29.91232 
L 288.30679 30.017812 
L 289.097451 30.303468 
L 290.156542 30.966493 
L 291.214399 31.945355 
L 292.269789 33.231441 
L 293.591142 35.265928 
L 294.914785 37.759828 
L 296.499809 41.315458 
L 298.086948 45.455016 
L 299.937581 50.944567 
L 302.054001 57.98265 
L 304.433035 66.676689 
L 307.605373 79.15335 
L 316.063474 112.889796 
L 318.442332 121.328774 
L 320.559985 128.080242 
L 322.411148 133.272465 
L 323.995114 137.119334 
L 325.582252 140.371585 
L 326.90431 142.590586 
L 328.224781 144.341196 
L 329.283696 145.398013 
L 330.342435 146.138955 
L 331.397648 146.558778 
L 332.191835 146.663147 
L 332.984258 146.585458 
L 333.777387 146.325798 
L 334.834539 145.697723 
L 335.891339 144.750374 
L 336.951136 143.483967 
L 338.007759 141.912029 
L 339.330169 139.52144 
L 340.651874 136.679503 
L 342.239365 132.699688 
L 344.087708 127.345059 
L 345.937989 121.288064 
L 348.055466 113.6236 
L 350.699229 103.188977 
L 354.3975 87.587541 
L 360.743763 60.720918 
L 363.389464 50.468791 
L 365.766383 42.148069 
L 367.618779 36.393085 
L 369.466769 31.387832 
L 371.056199 27.730628 
L 372.375965 25.181188 
L 373.699961 23.089342 
L 374.757466 21.764605 
L 375.813561 20.755397 
L 376.870537 20.064016 
L 377.929628 19.694057 
L 378.720818 19.629402 
L 379.516591 19.746983 
L 380.306899 20.044399 
L 381.366167 20.723289 
L 382.42138 21.714788 
L 383.479238 23.01865 
L 383.479238 23.01865 
" clip-path="url(#p116a1791dd)" style="fill: none; stroke: #ff0000; stroke-width: 1.5; stroke-linecap: square"/>
   </g>
   <g id="patch_3">
    <path d="M 67.974375 208.364197 
L 67.974375 8.780197 
" style="fill: none; stroke: #000000; stroke-width: 1.5; stroke-linejoin: miter; stroke-linecap: square"/>
   </g>
   <g id="patch_4">
    <path d="M 425.094375 208.364197 
L 425.094375 8.780197 
" style="fill: none; stroke: #000000; stroke-width: 1.5; stroke-linejoin: miter; stroke-linecap: square"/>
   </g>
   <g id="patch_5">
    <path d="M 67.974375 208.364197 
L 425.094375 208.364197 
" style="fill: none; stroke: #000000; stroke-width: 1.5; stroke-linejoin: miter; stroke-linecap: square"/>
   </g>
   <g id="patch_6">
    <path d="M 67.974375 8.780197 
L 425.094375 8.780197 
" style="fill: none; stroke: #000000; stroke-width: 1.5; stroke-linejoin: miter; stroke-linecap: square"/>
   </g>
   <g id="legend_1">
    <g id="patch_7">
     <path d="M 76.374375 71.221447 
L 208.543125 71.221447 
Q 210.943125 71.221447 210.943125 68.821447 
L 210.943125 17.180197 
Q 210.943125 14.780197 208.543125 14.780197 
L 76.374375 14.780197 
Q 73.974375 14.780197 73.974375 17.180197 
L 73.974375 68.821447 
Q 73.974375 71.221447 76.374375 71.221447 
z
" style="fill: #ffffff; stroke: #ffffff; stroke-linejoin: miter"/>
    </g>
    <g id="line2d_144">
     <path d="M 78.774375 24.498322 
L 90.774375 24.498322 
L 102.774375 24.498322 
" style="fill: none; stroke: #000000; stroke-width: 1.5; stroke-linecap: square"/>
    </g>
    <g id="text_17">
     <!-- Data -->
     <g transform="translate(112.374375 28.698322) scale(0.12 -0.12)">
      <defs>
       <path id="DejaVuSans-44" d="M 1259 4147 
L 1259 519 
L 2022 519 
Q 2988 519 3436 956 
Q 3884 1394 3884 2338 
Q 3884 3275 3436 3711 
Q 2988 4147 2022 4147 
L 1259 4147 
z
M 628 4666 
L 1925 4666 
Q 3281 4666 3915 4102 
Q 4550 3538 4550 2338 
Q 4550 1131 3912 565 
Q 3275 0 1925 0 
L 628 0 
L 628 4666 
z
" transform="scale(0.015625)"/>
      </defs>
      <use xlink:href="#DejaVuSans-44"/>
      <use xlink:href="#DejaVuSans-61" x="77.001953"/>
      <use xlink:href="#DejaVuSans-74" x="138.28125"/>
      <use xlink:href="#DejaVuSans-61" x="177.490234"/>
     </g>
    </g>
    <g id="line2d_145">
     <path d="M 78.774375 42.112072 
L 90.774375 42.112072 
L 102.774375 42.112072 
" style="fill: none; stroke: #0000ff; stroke-opacity: 0.3; stroke-width: 6; stroke-linecap: square"/>
    </g>
    <g id="text_18">
     <!-- Smoothed Data -->
     <g transform="translate(112.374375 46.312072) scale(0.12 -0.12)">
      <use xlink:href="#DejaVuSans-53"/>
      <use xlink:href="#DejaVuSans-6d" x="63.476562"/>
      <use xlink:href="#DejaVuSans-6f" x="160.888672"/>
      <use xlink:href="#DejaVuSans-6f" x="222.070312"/>
      <use xlink:href="#DejaVuSans-74" x="283.251953"/>
      <use xlink:href="#DejaVuSans-68" x="322.460938"/>
      <use xlink:href="#DejaVuSans-65" x="385.839844"/>
      <use xlink:href="#DejaVuSans-64" x="447.363281"/>
      <use xlink:href="#DejaVuSans-20" x="510.839844"/>
      <use xlink:href="#DejaVuSans-44" x="542.626953"/>
      <use xlink:href="#DejaVuSans-61" x="619.628906"/>
      <use xlink:href="#DejaVuSans-74" x="680.908203"/>
      <use xlink:href="#DejaVuSans-61" x="720.117188"/>
     </g>
    </g>
    <g id="line2d_146">
     <path d="M 78.774375 59.725822 
L 90.774375 59.725822 
L 102.774375 59.725822 
" style="fill: none; stroke: #ff0000; stroke-width: 1.5; stroke-linecap: square"/>
    </g>
    <g id="text_19">
     <!-- Fit -->
     <g transform="translate(112.374375 63.925822) scale(0.12 -0.12)">
      <defs>
       <path id="DejaVuSans-46" d="M 628 4666 
L 3309 4666 
L 3309 4134 
L 1259 4134 
L 1259 2759 
L 3109 2759 
L 3109 2228 
L 1259 2228 
L 1259 0 
L 628 0 
L 628 4666 
z
" transform="scale(0.015625)"/>
      </defs>
      <use xlink:href="#DejaVuSans-46"/>
      <use xlink:href="#DejaVuSans-69" x="50.269531"/>
      <use xlink:href="#DejaVuSans-74" x="78.052734"/>
     </g>
    </g>
   </g>
  </g>
 </g>
 <defs>
  <clipPath id="p116a1791dd">
   <rect x="67.974375" y="8.780197" width="357.12" height="199.584"/>
  </clipPath>
 </defs>
</svg>
